<?xml version="1.0" encoding="UTF-8"?>
<svg id="Layer_8" data-name="Layer 8" xmlns="http://www.w3.org/2000/svg" viewBox="0 0 518 120">
  <defs>
    <style>
      .cls-1 {
        fill: #564fc0;
        stroke-width: 0px;
      }

      .cls-2 {
        isolation: isolate;
      }
    </style>
  </defs>
  <g class="cls-2">
    <path class="cls-1" d="M30.9,62.56c1.53,1.78,2.3,4,2.3,6.67,0,2.95-.99,5.57-2.97,7.88-2.3,2.63-6.32,3.94-12.06,3.94H6.85l7.82-8h.97c2.67,0,4.67-.33,6-1,1.33-.67,2-1.99,2-3.97,0-1.33-.34-2.36-1.03-3.09l4.91-5.03c1.33.65,2.46,1.52,3.39,2.6Z"/>
    <path class="cls-1" d="M71.8,38.69l-7.94,14.18h-10.18l8.06-14.18h10.06Z"/>
    <path class="cls-1" d="M104.89,67.53l9.39,13.51h-11.45l-9.21-13.51h-4.18v-8.24h5.39c.73,0,1.35-.04,1.88-.12.04,0,.16-.02.36-.06.2-.04.34-.06.42-.06l.36-.12c1.17-.24,2.04-.62,2.61-1.15.77-.69,1.27-1.68,1.52-2.97l.85-.91h8.79c-.32,6.14-2.95,10.14-7.88,12l1.15,1.64Z"/>
    <path class="cls-1" d="M153.48,44.14c4.16,4.16,6.24,9.35,6.24,15.57s-2.1,11.47-6.3,15.63c-4.16,4.16-9.33,6.26-15.51,6.3-.04,0-.11,0-.21-.03-.1-.02-.17-.03-.21-.03v-8.24h.48c3.47,0,6.38-1.31,8.73-3.94,2.38-2.67,3.57-5.88,3.57-9.63s-1.19-7.03-3.57-9.69c-2.3-2.59-5.17-3.92-8.6-4h-.54v-8.24h.42c6.18.04,11.35,2.14,15.51,6.3Z"/>
    <path class="cls-1" d="M194.92,38.57h9.27v42.41h-9.27l-4.3-5.76v-15.09l4.3,5.7v-27.27Z"/>
    <path class="cls-1" d="M268.6,54.14c0,5.25-1.5,9.09-4.48,11.51-2.59,2.1-6.3,3.27-11.15,3.51v-8.18c2.1-.2,3.57-.81,4.42-1.82,1.13-1.25,1.7-3.1,1.7-5.54s-.73-4.19-2.18-5.24c-.93-.69-2.24-1.15-3.94-1.39v-8.18c5.01.32,8.77,1.55,11.27,3.7,2.91,2.5,4.36,6.38,4.36,11.63Z"/>
    <path class="cls-1" d="M294.48,39.9l17.39,41.2h-9.82l-3.88-9.15h-17.33l3.51-8.36h10.3l-5.09-12.12,4.91-11.57Z"/>
    <path class="cls-1" d="M345.86,38.57h9.27v42.41h-9.27l-4.3-5.76v-15.09l4.3,5.7v-27.27Z"/>
    <path class="cls-1" d="M394.09,38.63v8.24h-9.94v-8.24h9.94Z"/>
    <path class="cls-1" d="M435.11,44.14c4.16,4.16,6.24,9.35,6.24,15.57s-2.1,11.47-6.3,15.63c-4.16,4.16-9.33,6.26-15.51,6.3-.04,0-.11,0-.21-.03-.1-.02-.17-.03-.21-.03v-8.24h.48c3.47,0,6.38-1.31,8.73-3.94,2.38-2.67,3.57-5.88,3.57-9.63s-1.19-7.03-3.57-9.69c-2.3-2.59-5.17-3.92-8.6-4h-.54v-8.24h.42c6.18.04,11.35,2.14,15.51,6.3Z"/>
    <path class="cls-1" d="M461.1,61.89h9.33v4.42c0,5.09-1.27,8.88-3.82,11.36-2.54,2.49-5.84,3.73-9.88,3.73-4.89,0-9.19-1.9-12.91-5.7l5.76-5.94c2.22,2.06,4.48,3.09,6.79,3.09,1.29,0,2.4-.52,3.33-1.55.93-1.03,1.39-2.58,1.39-4.64v-4.79Z"/>
    <path class="cls-1" d="M500.61,39.9l17.39,41.2h-9.82l-3.88-9.15h-17.33l3.51-8.36h10.3l-5.09-12.12,4.91-11.57Z"/>
  </g>
  <g class="cls-2">
    <path class="cls-1" d="M0,38.51h.61l-.61.61v-.61ZM15.03,38.63h.91L0,54.87v-.91l15.03-15.33ZM12.85,38.63h.85L0,52.62v-.91l12.85-13.09ZM10.66,38.63h.85L0,50.38v-.91l10.66-10.84ZM8.48,38.63h.85L0,48.14v-.85l8.48-8.66ZM6.3,38.63h.85l-7.15,7.27v-.85l6.3-6.42ZM4.12,38.63h.85l-4.97,5.03v-.85l4.12-4.18ZM1.88,38.63h.91l-2.79,2.85v-.91l1.88-1.94ZM9.27,46.75v.91L0,57.11v-.91l9.27-9.45ZM9.27,48.99v.85L0,59.35v-.91l9.27-9.45ZM9.27,51.23v.85L0,61.53v-.85l9.27-9.45ZM9.27,53.47v.85L0,63.77v-.85l9.27-9.45ZM9.27,63.23v.06L0,72.74v-.91l15.81-16.12c.32-.04.65-.08.97-.12l-7.51,7.63ZM9.27,55.78h.79L0,66.01v-.85l9.27-9.51v.12ZM13.69,55.78h.73L0,70.5v-.91l13.57-13.81h.12ZM11.33,55.78h.91L0,68.26v-.91l11.33-11.57ZM9.27,64.62v.85L0,74.98v-.91l9.27-9.45ZM9.27,66.86v.85L0,77.16v-.85l9.27-9.45ZM9.27,69.11v.85L0,79.41v-.85l9.27-9.45ZM9.27,71.35v.85L.61,81.04h-.61v-.24l9.27-9.45ZM9.82,73.04h.85l-7.88,8h-.85l7.88-8ZM12,73.04h.85l-7.82,8h-.91l7.88-8ZM14.18,73.04h.85l-7.82,8h-.85l7.82-8ZM16.36,72.98h.91l-7.88,8.06h-.85l7.82-8.06ZM10.24,46.63h-.85l7.82-8c.2,0,.49.02.85.06l-7.82,7.94ZM18.42,55.29c.36-.08.69-.2.97-.36.2-.08.36-.16.48-.24l-8.42,8.54h-.85l7.82-7.94ZM18.72,72.8c.4-.04.77-.1,1.09-.18l-8.24,8.42h-.85l8-8.24ZM12.42,46.63h-.85l7.7-7.82c.24,0,.5.02.79.06l-7.63,7.76ZM13.69,63.23h-.91l17.27-17.57c.08.2.16.43.24.67l-16.6,16.91ZM30.96,62.62c.12.16.24.32.36.48l-17.57,17.94h-.85l8.97-9.15c.49-.32.87-.71,1.15-1.15l7.94-8.12ZM14.6,46.63h-.85l7.45-7.57c.28.08.5.14.67.18l-7.27,7.39ZM15.88,63.29c-.28-.04-.59-.06-.91-.06l15.63-15.88c.04.2.08.45.12.73l-14.85,15.21ZM31.87,63.89c.12.24.22.44.3.61l-16.24,16.54h-.85l16.78-17.15ZM16.66,46.81c-.2-.04-.47-.08-.79-.12l7.09-7.21c.24.08.4.14.49.18.04,0,.07.01.09.03.02.02.05.03.09.03l-6.97,7.09ZM17.94,63.41c-.2-.04-.48-.06-.85-.06l13.75-14.06v.91l-12.91,13.21ZM32.54,65.47c.08.16.16.36.24.61l-14.6,14.97h-.91l15.27-15.57ZM18.54,47.11c-.2-.04-.45-.08-.73-.12l6.79-6.91c.2.08.38.16.55.24l-6.6,6.79ZM19.81,63.65c-.24-.04-.48-.08-.73-.12l11.69-11.88c-.08.36-.16.73-.24,1.09l-10.72,10.91ZM19.57,47.53h-.06l6.54-6.72c.2.12.38.24.54.36l-6.6,6.66c-.12-.12-.26-.22-.42-.3ZM33.14,68.01l-12.72,12.91c-.32.04-.63.06-.91.06l13.51-13.75c.04.2.08.46.12.79ZM20.96,49.11c-.08-.2-.18-.38-.3-.54l6.67-6.85c.16.16.32.3.49.42l-6.85,6.97ZM20.66,53.9c.24-.4.42-.89.55-1.45l8.12-8.24c.08.12.18.3.3.54l-8.97,9.15ZM21.51,64.2c-.2-.08-.4-.16-.61-.24l4.61-4.73c.24.04.46.1.67.18l-4.67,4.79ZM21.27,50.99c0-.24-.02-.51-.06-.79l7.21-7.33c.16.2.28.36.36.48l-7.51,7.63ZM22.9,80.68c-.32.04-.67.08-1.03.12l11.33-11.51c0,.28-.02.59-.06.91l-10.24,10.48ZM22.78,65.17c-.16-.16-.32-.32-.48-.49l4.85-4.91c.2.12.4.22.61.3l-4.97,5.09ZM23.45,66.68c-.04-.24-.1-.46-.18-.67l5.33-5.45c.12.08.28.2.49.36l-5.64,5.76ZM23.63,68.08v-.18l6.24-6.42.42.42-6.73,6.91c.04-.24.06-.49.06-.73ZM25.81,79.95c-.4.12-.83.24-1.27.36l8.36-8.54c-.08.4-.18.81-.3,1.21l-6.79,6.97ZM27.69,57.23c-.36.32-.69.59-.97.79l2.97-3.03c-.53.89-1.19,1.64-2,2.24ZM30.24,77.1c-.57.61-1.21,1.13-1.94,1.58l2.97-2.97c-.32.45-.67.91-1.03,1.39Z"/>
    <path class="cls-1" d="M33.93,38.69h.85l-.67.67-.3-.54.12-.12ZM36.11,38.69h.85l-2.06,2.12-.3-.61,1.52-1.51ZM38.29,38.69h.85l-3.45,3.51-.3-.54,2.91-2.97ZM40.48,38.69h.91l-4.85,4.97-.36-.61,4.3-4.36ZM42.66,38.69h.91l-6.24,6.36-.3-.54,5.64-5.82ZM44.17,39.35l.36.61-6.42,6.48-.3-.55,6.36-6.54ZM45.02,40.81l.3.54-6.42,6.54-.3-.54,6.42-6.54ZM45.81,42.2l.3.55-6.42,6.54-.3-.54,6.42-6.54ZM46.6,43.6l.3.61-6.42,6.54-.3-.61,6.42-6.54ZM47.38,45.05l.36.54-6.42,6.54-.36-.55,6.42-6.54ZM48.23,46.44l.3.54-6.42,6.6-.3-.61,6.42-6.54ZM49.02,47.84l.3.61-6.42,6.54-.3-.54,6.42-6.61ZM49.81,49.29l.36.54-6.48,6.61-.3-.61,6.42-6.54ZM50.66,50.69l.3.54-6.48,6.61-.3-.55,6.48-6.6ZM51.44,52.08l.3.61-6.48,6.54-.3-.54,6.48-6.6ZM52.23,53.53l.3.55-6.42,6.6-.36-.54,6.48-6.61ZM68.95,38.69h.91l-22.96,23.39-.36-.54,22.42-22.84ZM71.8,38.69l-.24.48-23.87,24.36-.3-.55,23.75-24.3h.67ZM69.74,42.32l-1.15,2.06-20.48,20.9v-.91l21.63-22.05ZM66.83,47.59l-1.15,2.06-17.57,17.88v-.91l18.72-19.03ZM63.93,52.81l-1.15,2.06-14.66,14.91v-.91l15.81-16.06ZM60.96,58.02l-1.15,2.06-11.69,11.88v-.85l12.85-13.09ZM57.44,64.32v.42l-9.33,9.45v-.85l9.94-10.12-.61,1.09ZM57.44,66.08v.91l-9.33,9.45v-.85l9.33-9.51ZM57.44,68.32v.91l-9.33,9.45v-.91l9.33-9.45ZM57.44,70.56v.91l-9.33,9.45v-.91l9.33-9.45ZM57.44,73.71l-7.27,7.39h-.85l8.12-8.3v.91ZM52.35,81.1h-.85l5.94-6.06v.91l-5.09,5.15ZM66.77,38.69h.85l-14,14.3,1.21-2.12,11.94-12.18ZM54.53,81.1h-.85l3.76-3.82v.85l-2.91,2.97ZM56.71,81.1h-.85l1.58-1.58v.85l-.73.73ZM64.59,38.69h.85l-8.79,8.97,1.21-2.12,6.73-6.85ZM62.41,38.69h.85l-3.57,3.64,1.21-2.12,1.51-1.51Z"/>
    <path class="cls-1" d="M93.68,38.63h.24l-16,16.3v-.85l15.15-15.45h.61ZM90.83,38.63h.91l-13.82,14.12v-.91l12.91-13.21ZM88.65,38.63h.91l-11.63,11.88v-.91l10.73-10.97ZM86.46,38.63h.85l-9.39,9.63v-.91l8.54-8.72ZM84.28,38.63h.85l-7.21,7.39v-.91l6.36-6.48ZM82.1,38.63h.85l-5.03,5.15v-.85l4.18-4.3ZM79.92,38.63h.85l-2.85,2.91v-.85l2-2.06ZM77.92,38.63h.67l-.67.67v-.67ZM87.19,46.87v.85l-9.27,9.45v-.85l9.27-9.45ZM87.19,49.05v.91l-9.27,9.45v-.85l9.27-9.51ZM87.19,51.29v.91l-9.27,9.45v-.91l9.27-9.45ZM87.19,53.53v.91l-9.27,9.45v-.91l9.27-9.45ZM87.19,55.78v.91l-9.27,9.45v-.91l9.27-9.45ZM87.19,58.02v.91l-9.27,9.45v-.91l9.27-9.45ZM94.71,59.35c.32-.04.61-.06.85-.06l-8.06,8.24h-.3v.3l-9.27,9.45v-.85l16.78-17.09ZM92.46,59.35h.85l-15.39,15.69v-.85l14.54-14.84ZM90.28,59.35h.85l-13.21,13.45v-.85l12.36-12.6ZM88.1,59.35h.85l-11.03,11.27v-.91l10.18-10.36ZM77.92,79.53v-.91l9.27-9.45v.91l-9.27,9.45ZM77.92,81.04v-.18l9.27-9.45v.91l-8.54,8.73h-.73ZM80.83,81.04h-.91l7.27-7.39v.91l-6.36,6.48ZM83.01,81.04h-.85l5.03-5.15v.85l-4.18,4.3ZM85.19,81.04h-.85l2.85-2.91v.85l-2,2.06ZM87.19,81.04h-.67l.67-.67v.67ZM88.16,46.81h-.91l7.94-8.12h.85l-7.88,8.12ZM97.07,59.11c.36-.04.73-.12,1.09-.24l-8.48,8.67h-.85l8.24-8.42ZM90.34,46.81h-.91l7.88-8c.32,0,.58.02.79.06l-7.76,7.94ZM110.88,47.23c.08.2.16.42.24.67l-19.27,19.63h-.85l19.87-20.3ZM92.52,46.81h-.91l7.7-7.82c.24.04.48.08.73.12l-7.51,7.7ZM111.37,49.05c.04.28.08.53.12.73l-17.69,18-.18-.24h-.42l18.18-18.48ZM94.16,46.81h-.3l7.33-7.51s.26.1.67.18l-7.15,7.33h-.55ZM111.61,50.99v.85l-16.91,17.27-.36-.55,17.27-17.57ZM111.61,53.17v.97l-16,16.3-.36-.54,16.36-16.72ZM96.77,46.93c-.24-.04-.51-.08-.79-.12l6.97-7.09c.2.08.42.16.67.24l-6.85,6.97ZM111.49,55.59c-.04.32-.1.69-.18,1.09l-14.78,15.09-.36-.54,15.33-15.63ZM103.73,65.89l.3.42-6.67,6.73-.3-.49,13.75-14.06c-.16.48-.34.97-.55,1.45l-5.33,5.39c-.36.2-.77.38-1.21.54ZM98.64,47.23c-.24-.04-.48-.08-.73-.12l6.67-6.79c.24.08.44.16.61.24l-6.54,6.66ZM104.58,67.11l.36.48-6.67,6.79-.36-.54,6.67-6.72ZM105.49,68.38l.36.55-6.67,6.79-.36-.54,6.67-6.79ZM100.16,47.9c-.16-.12-.34-.22-.55-.3l6.42-6.6c.16.08.34.2.54.36l-6.42,6.54ZM106.4,69.71l.36.54-6.67,6.79-.36-.54,6.67-6.79ZM107.31,71.04l.36.48-6.67,6.79-.36-.49,6.67-6.79ZM101.31,48.99c-.12-.16-.26-.32-.42-.48l6.48-6.61.12.06c.12.12.24.22.36.3l-6.54,6.73ZM108.22,72.32l.36.55-6.67,6.79-.36-.54,6.67-6.79ZM101.98,50.56c-.08-.24-.16-.46-.24-.67l6.79-6.97c.16.16.3.32.42.48l-6.97,7.15ZM101.98,55.05c.08-.36.12-.73.12-1.09l8.18-8.36c.12.2.22.42.3.67l-8.6,8.78ZM102.16,52.56v-.85l7.33-7.51c.12.16.24.34.36.54l-7.7,7.82ZM109.13,73.65l.36.48-6.73,6.85-.3-.54,6.67-6.79ZM110.4,75.47l-5.51,5.57h-.85l6-6.12.36.54ZM107.13,81.04h-.91l4.73-4.79.36.55-4.18,4.24ZM109.31,81.04h-.91l3.45-3.51.36.54-2.91,2.97ZM111.49,81.04h-.85l2.12-2.18.36.54-1.64,1.64ZM113.67,81.04h-.85l.85-.85.36.48-.36.36Z"/>
    <path class="cls-1" d="M137.91,37.84h.36l-22.18,22.6v-.85l21.33-21.75h.48ZM139.54,37.9c.32,0,.61.02.85.06l-24.18,24.6c0-.28-.02-.57-.06-.85l23.39-23.81ZM135.06,37.96c.28,0,.61-.02.97-.06l-19.87,20.3c0-.28.02-.61.06-.97l18.84-19.27ZM132.45,38.44c.36-.08.73-.16,1.09-.24l-17.15,17.45c.08-.36.16-.73.24-1.09l15.81-16.12ZM127.49,52.44c-.32.57-.61,1.15-.85,1.76l-10.12,10.3c-.04-.28-.08-.54-.12-.79l11.09-11.27ZM126.03,56.2c-.12.32-.2.69-.24,1.09l-8.79,8.97c-.08-.24-.16-.46-.24-.67l9.27-9.39ZM129.24,39.48c.44-.2.91-.38,1.39-.54l-13.51,13.81c.12-.48.28-.95.49-1.39l11.63-11.88ZM125.67,58.8c-.04.32-.06.63-.06.91l-8.06,8.24c-.08-.16-.16-.38-.24-.67l8.36-8.48ZM125.67,60.99c0,.32.02.59.06.79l-7.51,7.7-.3-.61,7.76-7.88ZM125.91,62.98c.04.2.1.43.18.67l-7.15,7.27c-.08-.16-.18-.34-.3-.55l7.27-7.39ZM123.61,42.99c.97-.85,1.98-1.58,3.03-2.18l-7.82,7.94c.61-1.05,1.31-2.06,2.12-3.03l2.67-2.73ZM126.4,64.68c.08.2.16.43.24.67l-6.79,6.91c-.16-.16-.28-.32-.36-.48l6.91-7.09ZM127.06,66.26c.08.2.18.4.3.61l-6.6,6.67c-.16-.2-.28-.36-.36-.48l6.67-6.79ZM127.85,67.65c.12.2.24.38.36.54l-6.42,6.54c-.16-.2-.28-.36-.36-.49l6.42-6.6ZM129.18,69.41l-6.24,6.42c-.2-.2-.36-.34-.48-.42l6.36-6.42c.16.16.28.3.36.42ZM129.85,70.14c.16.12.32.24.48.36l-6.24,6.36c-.12-.08-.28-.2-.49-.36l6.24-6.36ZM131.06,71.11c.16.12.32.24.49.36l-6.18,6.36c-.2-.16-.38-.28-.55-.36l6.24-6.36ZM132.39,72.01c.2.08.4.18.61.3l-6.3,6.36c-.16-.08-.34-.18-.54-.3l6.24-6.36ZM133.91,72.68c.2.08.42.16.67.24l-6.42,6.54c-.28-.12-.49-.22-.61-.3l6.36-6.48ZM135.67,73.17c.28.04.52.08.73.12l-6.73,6.85c-.16-.04-.36-.12-.61-.24l6.6-6.72ZM137.97,73.35h.55l-7.21,7.33c-.24-.04-.46-.1-.67-.18l6.97-7.15h.36ZM133.91,46.75c-.57.2-1.09.47-1.58.79l9.21-9.45c.24.04.49.08.73.12l-8.36,8.54ZM139.97,73.23c.36-.08.73-.16,1.09-.24l-8,8.18c-.16-.04-.4-.1-.73-.18l7.63-7.76ZM159.42,55.59c.04.24.08.51.12.79l-24.6,25.08c-.24-.04-.48-.08-.73-.12l8.97-9.21c1.29-.65,2.46-1.55,3.51-2.73.81-.89,1.47-1.86,2-2.91l10.72-10.91ZM136.7,46.14c-.28.04-.61.08-.97.12l7.7-7.82c.24.04.46.1.67.18l-7.39,7.51ZM159.66,57.59c0,.24.02.52.06.85l-22.72,23.15c-.28,0-.57-.02-.85-.06l23.51-23.93ZM138.94,46.08h-.85l7.03-7.15c.12.04.34.12.67.24l-6.85,6.91ZM159.72,60.62l-20.54,20.96h-.91l21.45-21.87v.91ZM140.82,46.38c-.2-.04-.44-.08-.73-.12l6.6-6.73c.32.12.52.2.61.24l-6.48,6.61ZM141.6,81.34c-.28.04-.61.08-.97.12l19.03-19.39c-.04.4-.08.75-.12,1.03l-17.94,18.24ZM142.45,46.93c-.2-.08-.4-.16-.61-.24l6.36-6.48c.24.16.42.28.55.36l-6.3,6.36ZM144.39,80.74c-.4.12-.79.22-1.15.3l16-16.36c-.08.45-.16.85-.24,1.21l-14.6,14.85ZM143.91,47.72c-.16-.12-.34-.22-.55-.3l6.24-6.36c.2.08.38.18.54.3l-6.24,6.36ZM145.24,48.63c-.2-.12-.36-.24-.49-.36l6.18-6.3c.12.08.28.2.49.36l-6.18,6.3ZM146.39,49.72c-.2-.2-.36-.36-.48-.48l6.24-6.3c.16.12.32.24.49.36l-6.24,6.42ZM147.97,79.35c-.53.24-1.05.48-1.58.73l11.94-12.18c-.2.53-.42,1.05-.67,1.58l-9.69,9.88ZM147.36,50.87c-.16-.2-.28-.36-.36-.48l6.3-6.42s.04.08.12.12c.04.04.09.1.15.18s.11.12.15.12l-6.36,6.48ZM148.27,52.2c-.12-.2-.22-.38-.3-.55l6.42-6.54c.2.2.34.36.42.48l-6.54,6.61ZM149.06,53.65c-.12-.2-.22-.4-.3-.61l6.67-6.72c.2.28.32.44.36.48l-6.73,6.85ZM149.66,55.29c-.08-.24-.16-.46-.24-.67l6.91-7.03c.12.2.22.39.3.55l-6.97,7.15ZM149.66,64.2c.12-.4.22-.81.3-1.21l9.09-9.21c.04.2.08.44.12.73l-9.51,9.69ZM150.09,57.11c-.04-.24-.1-.5-.18-.79l7.27-7.33c.12.24.22.42.3.54l-7.39,7.57ZM150.27,59.11c0-.24-.02-.52-.06-.85l7.7-7.82c.12.28.2.51.24.67l-7.88,8ZM150.21,61.41c.04-.32.06-.65.06-.97l8.24-8.36c.08.2.16.42.24.67l-8.54,8.67ZM153.42,75.35c-.61.61-1.21,1.15-1.82,1.64l3.82-3.94c-.61.81-1.27,1.58-2,2.3Z"/>
    <path class="cls-1" d="M174.51,38.32l.12.18-8.79,8.97v-.91l8.12-8.24h.54ZM171.78,38.32h.85l-6.79,6.91v-.91l5.94-6ZM169.54,38.32h.91l-4.61,4.67v-.85l3.7-3.82ZM167.36,38.32h.91l-2.42,2.42v-.85l1.52-1.58ZM165.84,38.32h.18l-.18.18v-.18ZM175.23,39.23l.36.54-9.76,9.94v-.91l9.39-9.57ZM176.14,40.51l.42.54-10.73,10.91v-.91l10.3-10.54ZM177.11,42.02l.36.49-11.63,11.88v-.85l11.27-11.51ZM178.08,43.29l.36.48-12.6,12.85v-.85l12.24-12.48ZM178.99,44.57l.42.48-13.57,13.81v-.85l13.15-13.45ZM179.96,45.84l.36.49-14.48,14.78v-.85l14.12-14.42ZM180.93,47.11l.36.48-15.45,15.75v-.91l15.09-15.33ZM165.84,65.59v-.91l9.27-9.45v.91l-9.27,9.45ZM165.84,67.83v-.91l9.27-9.45v.91l-9.27,9.45ZM165.84,70.07v-.91l9.27-9.45v.85l-9.27,9.51ZM165.84,72.26v-.85l9.27-9.45v.85l-9.27,9.45ZM165.84,74.5v-.85l9.27-9.45v.85l-9.27,9.45ZM165.84,76.74v-.85l9.27-9.51v.91l-9.27,9.45ZM165.84,78.98v-.91l9.27-9.45v.91l-9.27,9.45ZM165.84,80.98v-.67l9.27-9.45v.91l-9.03,9.21h-.24ZM168.26,80.98h-.85l7.7-7.88v.91l-6.85,6.97ZM170.51,80.98h-.91l5.51-5.64v.91l-4.61,4.73ZM172.69,80.98h-.91l3.33-3.39v.85l-2.42,2.54ZM174.87,80.98h-.85l1.09-1.15v.85l-.24.3ZM181.84,48.38l.36.48-6.36,6.48-.36-.48,6.36-6.48ZM182.81,49.65l.36.49-6.36,6.48-.36-.48,6.36-6.48ZM183.78,50.93l.36.48-6.42,6.48-.36-.49,6.42-6.48ZM184.68,52.14l.36.54-6.36,6.48-.36-.48,6.36-6.54ZM185.65,53.41l.36.55-6.36,6.48-.42-.48,6.42-6.54ZM186.56,54.68l.42.54-6.42,6.48-.36-.48,6.36-6.54ZM187.53,55.96l.36.54-6.36,6.48-.36-.48,6.36-6.54ZM188.5,57.23l.36.49-6.36,6.54-.42-.48,6.42-6.54ZM189.41,58.5l.42.48-6.42,6.54-.36-.48,6.36-6.54ZM190.38,59.77l.36.48-6.36,6.54-.36-.48,6.36-6.54ZM191.35,61.05l.36.49-6.42,6.54-.36-.48,6.42-6.54ZM192.26,62.32l.36.48-6.36,6.54-.36-.54,6.36-6.48ZM193.23,63.59l.36.48-6.36,6.54-.42-.54,6.42-6.48ZM194.2,64.86l.36.49-6.42,6.54-.36-.54,6.42-6.48ZM204.2,56.87v.85l-15.09,15.45-.36-.54,15.45-15.75ZM204.2,59.11v.85l-14.18,14.48-.36-.54,14.54-14.78ZM204.2,61.35v.85l-13.21,13.45-.36-.48,13.57-13.81ZM204.2,63.53v.91l-12.24,12.48-.42-.48,12.66-12.91ZM204.2,65.77v.91l-11.33,11.51-.36-.48,11.69-11.94ZM204.2,68.01v.91l-10.36,10.54-.36-.48,10.73-10.97ZM204.2,70.26v.91l-9.45,9.57-.36-.48,9.82-10ZM202.44,38.57h.85l-8.36,8.54v-.91l7.51-7.63ZM200.26,38.57h.85l-6.18,6.3v-.91l5.33-5.39ZM198.01,38.57h.91l-4,4.06v-.91l3.09-3.15ZM195.83,38.57h.91l-1.82,1.82v-.91l.91-.91ZM204.2,38.99v.85l-9.27,9.51v-.91l9.27-9.45ZM204.2,41.23v.85l-9.27,9.45v-.85l9.27-9.45ZM204.2,43.47v.85l-9.27,9.45v-.85l9.27-9.45ZM204.2,45.66v.91l-9.27,9.45v-.85l9.27-9.51ZM204.2,47.9v.91l-9.27,9.45v-.91l9.27-9.45ZM204.2,50.14v.91l-9.27,9.45v-.91l9.27-9.45ZM204.2,52.38v.91l-9.27,9.45v-.91l9.27-9.45ZM204.2,54.62v.85l-9.27,9.51v-.91l9.27-9.45ZM204.2,73.35l-7.45,7.63h-.85l8.3-8.48v.85ZM198.98,80.98h-.91l6.12-6.24v.85l-5.21,5.39ZM201.17,80.98h-.91l3.94-4v.85l-3.03,3.15ZM203.35,80.98h-.91l1.76-1.76v.85l-.85.91Z"/>
    <path class="cls-1" d="M250.24,38.69c.32,0,.63.02.91.06l-15.57,15.81v-.85l14.66-15.03ZM248.06,38.69h.91l-13.39,13.63v-.85l12.48-12.78ZM245.88,38.69h.85l-11.15,11.39v-.85l10.3-10.54ZM243.7,38.69h.85l-8.97,9.21v-.91l8.12-8.3ZM241.52,38.69h.85l-6.79,6.97v-.91l5.94-6.06ZM244.85,46.81v.54l-9.27,9.45v-.91l16.84-17.15c.2,0,.46.02.79.06l-7.88,8h-.49ZM239.34,38.81h.85l-4.61,4.66v-.91l3.76-3.76ZM237.1,38.81h.91l-2.42,2.42v-.85l1.52-1.57ZM235.58,38.81h.24l-.24.18v-.18ZM244.85,48.69v.91l-9.27,9.45v-.91l9.27-9.45ZM244.85,50.93v.91l-9.27,9.45v-.91l9.27-9.45ZM244.85,53.17v.85l-9.27,9.51v-.91l9.27-9.45ZM244.85,55.41v.85l-9.27,9.45v-.85l9.27-9.45ZM244.85,57.65v.85l-9.27,9.45v-.85l9.27-9.45ZM244.85,59.83v.91l-9.27,9.45v-.85l9.27-9.51ZM252.49,61.05c.36-.04.69-.08.97-.12l-8.18,8.36h-.42v.42l-9.27,9.45v-.91l16.91-17.21ZM250.24,61.11h.85l-15.51,15.82v-.91l14.66-14.91ZM248.06,61.11h.85l-13.33,13.57v-.91l12.48-12.66ZM245.82,61.11h.91l-11.15,11.33v-.91l10.24-10.42ZM235.58,81.1v-.61l9.27-9.45v.85l-9.03,9.21h-.24ZM238.07,81.1h-.91l7.7-7.82v.85l-6.79,6.97ZM240.25,81.1h-.91l5.51-5.57v.85l-4.61,4.73ZM242.43,81.1h-.85l3.27-3.39v.91l-2.42,2.48ZM244.61,81.1h-.85l1.09-1.15v.91l-.24.24ZM255.09,60.56c.69-.2,1.25-.48,1.7-.85l-9.33,9.57h-.85l8.48-8.73ZM247.58,46.81h-.91l7.76-7.88c.36.04.63.06.79.06l-7.63,7.82ZM268.12,49.53c.04.08.1.32.18.73l-18.66,19.03h-.85l19.33-19.75ZM249.76,46.81h-.91l7.51-7.63c.32.08.57.12.73.12l-7.33,7.51ZM268.42,51.47c.04.32.08.59.12.79l-16.66,16.97c-.32.04-.63.06-.91.06l17.45-17.81ZM251.88,46.87h-.85l7.15-7.33c.2.08.42.14.67.18l-6.97,7.15ZM253.82,47.17c-.24-.04-.48-.08-.73-.12l6.79-6.97c.2.08.42.16.67.24l-6.73,6.85ZM268.6,54.14v.3l-14.42,14.66c-.2,0-.51.02-.91.06l15.33-15.63v.61ZM255.52,47.66c-.24-.08-.46-.16-.67-.24l6.6-6.72c.2.12.38.22.54.3l-6.48,6.66ZM268.54,55.84c-.04.36-.08.69-.12.97l-11.69,11.94c-.36.08-.71.14-1.03.18l12.85-13.09ZM256.91,48.38c-.16-.08-.32-.18-.49-.3l6.42-6.61c.2.12.38.24.55.36l-6.42,6.61s-.02-.06-.06-.06ZM258.06,49.53c-.12-.16-.26-.32-.42-.48l6.48-6.6s.06,0,.06.03.02.03.06.03c.12.12.24.24.36.36l-6.54,6.66ZM257.64,58.86c.4-.52.73-1.13.97-1.82l9.03-9.27c.08.24.16.47.24.67l-10.24,10.42ZM268.18,58.38c-.08.4-.16.81-.24,1.21l-8.3,8.42c-.4.12-.81.24-1.21.36l9.76-10ZM258.73,51.05c-.04-.24-.12-.44-.24-.61l6.79-6.91c.16.2.28.36.36.48l-6.91,7.03ZM259.03,52.99c0-.32-.02-.61-.06-.85l7.27-7.33c.08.12.18.28.3.48l-7.51,7.7ZM258.97,55.29c.04-.32.06-.65.06-.97l8-8.12c.08.16.16.36.24.61l-8.3,8.48ZM267.15,61.71c-.45.97-.99,1.82-1.64,2.54l-1.03,1.03c-.12.12-.24.24-.36.36-.69.53-1.43.99-2.24,1.39l5.27-5.33Z"/>
    <path class="cls-1" d="M284.54,63.59h.85l-17.15,17.51h-.85l17.15-17.51ZM285.69,60.2l-.67,1.52-17.33,17.69.67-1.52,17.33-17.69ZM287.39,56.2l-.67,1.58-17.39,17.69.67-1.52,17.39-17.75ZM286.72,63.59h.85l-17.09,17.51h-.91l17.15-17.51ZM289.08,52.26l-.67,1.58-17.39,17.69.67-1.52,17.39-17.75ZM272.66,81.1h-.91l8.97-9.15-.67,1.58-7.39,7.57ZM295.81,43.17l.3.61-23.39,23.81.61-1.52,22.48-22.9ZM274.84,81.1h-.91l5.15-5.21-.67,1.58-3.58,3.64ZM295.14,41.6l.3.61-21.09,21.51.67-1.58,20.12-20.54ZM294.48,40.02l.3.61-18.72,19.15.61-1.58,17.81-18.18ZM276.84,81.1h-.67l1.21-1.27-.55,1.27ZM293.93,38.69l.18.42-16.42,16.72.67-1.58,15.27-15.57h.3ZM291.45,38.69h.85l-12.91,13.21.61-1.58,11.45-11.63ZM288.9,63.59h.85l-8.12,8.3h-.91l8.18-8.3ZM289.27,38.69h.85l-9.09,9.27.67-1.57,7.57-7.7ZM287.08,38.69h.85l-5.21,5.33.61-1.57,3.76-3.76ZM291.08,63.59h.85l-8.12,8.3h-.85l8.12-8.3ZM284.96,38.69h.79l-1.39,1.39.61-1.39ZM293.26,63.59h.91l-8.18,8.3h-.85l8.12-8.3ZM301.75,57.17l.3.61-13.88,14.12h-.85l14.42-14.72ZM302.41,58.74l.3.61-12.36,12.54h-.85l12.91-13.15ZM289.87,52.32l-.24-.61,6.85-7.03.24.67-6.85,6.97ZM290.54,53.9l-.24-.67,6.85-6.97.24.61-6.85,7.03ZM291.2,55.41l-.24-.61,6.85-6.97.24.61-6.85,6.97ZM291.87,56.99l-.24-.61,6.85-6.97.24.61-6.85,6.97ZM303.08,60.32l.3.61-10.79,10.97h-.91l11.39-11.57ZM292.54,58.56l-.24-.61,6.85-7.03.24.67-6.85,6.97ZM293.2,60.14l-.3-.61,6.91-7.03.24.61-6.85,7.03ZM293.87,61.71l-.3-.67,6.91-6.97.24.61-6.85,7.03ZM303.75,61.89l.24.61-9.21,9.39h-.91l9.88-10ZM294.48,63.29l-.24-.67,6.91-6.97.24.61-6.91,7.03ZM304.41,63.41l.24.61-7.7,7.88h-.85l8.3-8.48ZM305.08,64.98l.24.61-6.85,7.03-.3-.61,6.91-7.03ZM305.75,66.56l.24.61-6.85,7.03-.3-.61,6.91-7.03ZM306.41,68.08l.24.67-6.91,7.03-.24-.67,6.91-7.03ZM307.08,69.65l.24.67-6.91,6.97-.24-.61,6.91-7.03ZM307.75,71.23l.24.61-6.91,7.03-.24-.61,6.91-7.03ZM308.35,72.8l.3.61-6.91,7.03-.24-.61,6.85-7.03ZM309.02,74.38l.3.61-6,6.12h-.91l6.6-6.73ZM309.68,75.89l.3.61-4.48,4.6h-.85l5.03-5.21ZM310.35,77.47l.3.61-2.97,3.03h-.85l3.51-3.64ZM311.02,79.04l.24.61-1.39,1.45h-.85l2-2.06ZM311.68,80.56l.18.54h-.67l.49-.54Z"/>
    <path class="cls-1" d="M325.44,38.32l.12.18-8.79,8.97v-.91l8.12-8.24h.54ZM322.71,38.32h.85l-6.79,6.91v-.91l5.94-6ZM320.47,38.32h.91l-4.61,4.67v-.85l3.7-3.82ZM318.29,38.32h.91l-2.42,2.42v-.85l1.52-1.58ZM316.77,38.32h.18l-.18.18v-.18ZM326.17,39.23l.36.54-9.76,9.94v-.91l9.39-9.57ZM327.07,40.51l.42.54-10.73,10.91v-.91l10.3-10.54ZM328.04,42.02l.36.49-11.63,11.88v-.85l11.27-11.51ZM329.01,43.29l.36.48-12.6,12.85v-.85l12.24-12.48ZM329.92,44.57l.42.48-13.57,13.81v-.85l13.15-13.45ZM330.89,45.84l.36.49-14.48,14.78v-.85l14.12-14.42ZM331.86,47.11l.36.48-15.45,15.75v-.91l15.09-15.33ZM316.77,65.59v-.91l9.27-9.45v.91l-9.27,9.45ZM316.77,67.83v-.91l9.27-9.45v.91l-9.27,9.45ZM316.77,70.07v-.91l9.27-9.45v.85l-9.27,9.51ZM316.77,72.26v-.85l9.27-9.45v.85l-9.27,9.45ZM316.77,74.5v-.85l9.27-9.45v.85l-9.27,9.45ZM316.77,76.74v-.85l9.27-9.51v.91l-9.27,9.45ZM316.77,78.98v-.91l9.27-9.45v.91l-9.27,9.45ZM316.77,80.98v-.67l9.27-9.45v.91l-9.03,9.21h-.24ZM319.2,80.98h-.85l7.7-7.88v.91l-6.85,6.97ZM321.44,80.98h-.91l5.51-5.64v.91l-4.61,4.73ZM323.62,80.98h-.91l3.33-3.39v.85l-2.42,2.54ZM325.8,80.98h-.85l1.09-1.15v.85l-.24.3ZM332.77,48.38l.36.48-6.36,6.48-.36-.48,6.36-6.48ZM333.74,49.65l.36.49-6.36,6.48-.36-.48,6.36-6.48ZM334.71,50.93l.36.48-6.42,6.48-.36-.49,6.42-6.48ZM335.62,52.14l.36.54-6.36,6.48-.36-.48,6.36-6.54ZM336.59,53.41l.36.55-6.36,6.48-.42-.48,6.42-6.54ZM337.5,54.68l.42.54-6.42,6.48-.36-.48,6.36-6.54ZM338.47,55.96l.36.54-6.36,6.48-.36-.48,6.36-6.54ZM339.44,57.23l.36.49-6.36,6.54-.42-.48,6.42-6.54ZM340.34,58.5l.42.48-6.42,6.54-.36-.48,6.36-6.54ZM341.31,59.77l.36.48-6.36,6.54-.36-.48,6.36-6.54ZM342.28,61.05l.36.49-6.42,6.54-.36-.48,6.42-6.54ZM343.19,62.32l.36.48-6.36,6.54-.36-.54,6.36-6.48ZM344.16,63.59l.36.48-6.36,6.54-.42-.54,6.42-6.48ZM345.13,64.86l.36.49-6.42,6.54-.36-.54,6.42-6.48ZM355.13,56.87v.85l-15.09,15.45-.36-.54,15.45-15.75ZM355.13,59.11v.85l-14.18,14.48-.36-.54,14.54-14.78ZM355.13,61.35v.85l-13.21,13.45-.36-.48,13.57-13.81ZM355.13,63.53v.91l-12.24,12.48-.42-.48,12.66-12.91ZM355.13,65.77v.91l-11.33,11.51-.36-.48,11.69-11.94ZM355.13,68.01v.91l-10.36,10.54-.36-.48,10.73-10.97ZM355.13,70.26v.91l-9.45,9.57-.36-.48,9.82-10ZM353.37,38.57h.85l-8.36,8.54v-.91l7.51-7.63ZM351.19,38.57h.85l-6.18,6.3v-.91l5.33-5.39ZM348.95,38.57h.91l-4,4.06v-.91l3.09-3.15ZM346.77,38.57h.91l-1.82,1.82v-.91l.91-.91ZM355.13,38.99v.85l-9.27,9.51v-.91l9.27-9.45ZM355.13,41.23v.85l-9.27,9.45v-.85l9.27-9.45ZM355.13,43.47v.85l-9.27,9.45v-.85l9.27-9.45ZM355.13,45.66v.91l-9.27,9.45v-.85l9.27-9.51ZM355.13,47.9v.91l-9.27,9.45v-.91l9.27-9.45ZM355.13,50.14v.91l-9.27,9.45v-.91l9.27-9.45ZM355.13,52.38v.91l-9.27,9.45v-.91l9.27-9.45ZM355.13,54.62v.85l-9.27,9.51v-.91l9.27-9.45ZM355.13,73.35l-7.45,7.63h-.85l8.3-8.48v.85ZM349.92,80.98h-.91l6.12-6.24v.85l-5.21,5.39ZM352.1,80.98h-.91l3.94-4v.85l-3.03,3.15ZM354.28,80.98h-.91l1.76-1.76v.85l-.85.91Z"/>
    <path class="cls-1" d="M367.85,38.63h.85l-7.45,7.63v-.91l6.6-6.72ZM365.61,38.63h.91l-5.27,5.39v-.91l4.36-4.48ZM363.43,38.63h.91l-3.09,3.15v-.91l2.18-2.24ZM361.25,38.63h.91l-.91.91v-.91ZM370.03,38.63h.85l-8,8.24h-.91l8.06-8.24ZM372.22,38.63h.85l-8,8.24h-.91l8.06-8.24ZM374.4,38.63h.85l-8,8.24h-.85l8-8.24ZM376.58,38.63h.91l-8.06,8.24h-.85l8-8.24ZM378.76,38.63h.91l-8.06,8.24h-.85l8-8.24ZM381,38.63h.85l-8.85,9.03v-.79h-.06l8.06-8.24ZM382.33,46.87v.24l-9.33,9.45v-.85l16.72-17.09h.85l-8,8.24h-.24ZM387.54,38.63h.85l-15.39,15.69v-.85l14.54-14.84ZM385.36,38.63h.85l-13.21,13.45v-.85l12.36-12.6ZM383.18,38.63h.85l-11.03,11.27v-.91l10.18-10.36ZM382.33,48.44v.91l-9.33,9.45v-.85l9.33-9.51ZM382.33,50.69v.91l-9.33,9.45v-.91l9.33-9.45ZM382.33,52.93v.91l-9.33,9.45v-.91l9.33-9.45ZM382.33,55.17v.91l-9.33,9.45v-.91l9.33-9.45ZM382.33,57.41v.85l-9.33,9.51v-.91l9.33-9.45ZM382.33,59.65v.85l-9.33,9.45v-.85l9.33-9.45ZM382.33,61.89v.85l-9.33,9.45v-.85l9.33-9.45ZM382.33,64.08v.91l-9.33,9.45v-.85l9.33-9.51ZM382.33,66.32v.91l-9.33,9.45v-.91l9.33-9.45ZM382.33,68.56v.91l-9.33,9.45v-.91l9.33-9.45ZM382.33,70.8v.91l-9.21,9.33h-.12v-.79l9.33-9.45ZM375.31,81.04h-.85l7.88-8v.91l-7.03,7.09ZM377.49,81.04h-.85l5.7-5.76v.85l-4.85,4.91ZM379.73,81.04h-.91l3.51-3.51v.85l-2.6,2.67ZM381.91,81.04h-.91l1.27-1.33v.91l-.36.42ZM384.76,46.87h-.85l8-8.24h.91l-8.06,8.24ZM386.94,46.87h-.85l8-8.18v.91l-7.15,7.27ZM389.12,46.87h-.85l5.82-5.94v.91l-4.97,5.03ZM391.36,46.87h-.91l3.64-3.7v.85l-2.73,2.85ZM393.54,46.87h-.91l1.45-1.45v.85l-.55.61Z"/>
    <path class="cls-1" d="M419.54,37.84h.36l-22.18,22.6v-.85l21.33-21.75h.48ZM421.17,37.9c.32,0,.61.02.85.06l-24.18,24.6c0-.28-.02-.57-.06-.85l23.39-23.81ZM416.69,37.96c.28,0,.61-.02.97-.06l-19.87,20.3c0-.28.02-.61.06-.97l18.84-19.27ZM414.08,38.44c.36-.08.73-.16,1.09-.24l-17.15,17.45c.08-.36.16-.73.24-1.09l15.81-16.12ZM409.12,52.44c-.32.57-.61,1.15-.85,1.76l-10.12,10.3c-.04-.28-.08-.54-.12-.79l11.09-11.27ZM407.66,56.2c-.12.32-.2.69-.24,1.09l-8.79,8.97c-.08-.24-.16-.46-.24-.67l9.27-9.39ZM410.87,39.48c.44-.2.91-.38,1.39-.54l-13.51,13.81c.12-.48.28-.95.49-1.39l11.63-11.88ZM407.3,58.8c-.04.32-.06.63-.06.91l-8.06,8.24c-.08-.16-.16-.38-.24-.67l8.36-8.48ZM407.3,60.99c0,.32.02.59.06.79l-7.51,7.7-.3-.61,7.76-7.88ZM407.54,62.98c.04.2.1.43.18.67l-7.15,7.27c-.08-.16-.18-.34-.3-.55l7.27-7.39ZM405.24,42.99c.97-.85,1.98-1.58,3.03-2.18l-7.82,7.94c.61-1.05,1.31-2.06,2.12-3.03l2.67-2.73ZM408.03,64.68c.08.2.16.43.24.67l-6.79,6.91c-.16-.16-.28-.32-.36-.48l6.91-7.09ZM408.69,66.26c.08.2.18.4.3.61l-6.6,6.67c-.16-.2-.28-.36-.36-.48l6.67-6.79ZM409.48,67.65c.12.2.24.38.36.54l-6.42,6.54c-.16-.2-.28-.36-.36-.49l6.42-6.6ZM410.81,69.41l-6.24,6.42c-.2-.2-.36-.34-.48-.42l6.36-6.42c.16.16.28.3.36.42ZM411.48,70.14c.16.12.32.24.48.36l-6.24,6.36c-.12-.08-.28-.2-.49-.36l6.24-6.36ZM412.69,71.11c.16.12.32.24.49.36l-6.18,6.36c-.2-.16-.38-.28-.55-.36l6.24-6.36ZM414.02,72.01c.2.08.4.18.61.3l-6.3,6.36c-.16-.08-.34-.18-.54-.3l6.24-6.36ZM415.54,72.68c.2.08.42.16.67.24l-6.42,6.54c-.28-.12-.49-.22-.61-.3l6.36-6.48ZM417.3,73.17c.28.04.52.08.73.12l-6.73,6.85c-.16-.04-.36-.12-.61-.24l6.6-6.72ZM419.6,73.35h.55l-7.21,7.33c-.24-.04-.46-.1-.67-.18l6.97-7.15h.36ZM415.54,46.75c-.57.2-1.09.47-1.58.79l9.21-9.45c.24.04.49.08.73.12l-8.36,8.54ZM421.6,73.23c.36-.08.73-.16,1.09-.24l-8,8.18c-.16-.04-.4-.1-.73-.18l7.63-7.76ZM441.05,55.59c.04.24.08.51.12.79l-24.6,25.08c-.24-.04-.48-.08-.73-.12l8.97-9.21c1.29-.65,2.46-1.55,3.51-2.73.81-.89,1.47-1.86,2-2.91l10.72-10.91ZM418.33,46.14c-.28.04-.61.08-.97.12l7.7-7.82c.24.04.46.1.67.18l-7.39,7.51ZM441.29,57.59c0,.24.02.52.06.85l-22.72,23.15c-.28,0-.57-.02-.85-.06l23.51-23.93ZM420.57,46.08h-.85l7.03-7.15c.12.04.34.12.67.24l-6.85,6.91ZM441.35,60.62l-20.54,20.96h-.91l21.45-21.87v.91ZM422.45,46.38c-.2-.04-.44-.08-.73-.12l6.6-6.73c.32.12.52.2.61.24l-6.48,6.61ZM423.23,81.34c-.28.04-.61.08-.97.12l19.03-19.39c-.04.4-.08.75-.12,1.03l-17.94,18.24ZM424.08,46.93c-.2-.08-.4-.16-.61-.24l6.36-6.48c.24.16.42.28.55.36l-6.3,6.36ZM426.02,80.74c-.4.12-.79.22-1.15.3l16-16.36c-.08.45-.16.85-.24,1.21l-14.6,14.85ZM425.54,47.72c-.16-.12-.34-.22-.55-.3l6.24-6.36c.2.08.38.18.54.3l-6.24,6.36ZM426.87,48.63c-.2-.12-.36-.24-.49-.36l6.18-6.3c.12.08.28.2.49.36l-6.18,6.3ZM428.02,49.72c-.2-.2-.36-.36-.48-.48l6.24-6.3c.16.12.32.24.49.36l-6.24,6.42ZM429.6,79.35c-.53.24-1.05.48-1.58.73l11.94-12.18c-.2.53-.42,1.05-.67,1.58l-9.69,9.88ZM428.99,50.87c-.16-.2-.28-.36-.36-.48l6.3-6.42s.04.08.12.12c.04.04.09.1.15.18s.11.12.15.12l-6.36,6.48ZM429.9,52.2c-.12-.2-.22-.38-.3-.55l6.42-6.54c.2.2.34.36.42.48l-6.54,6.61ZM430.69,53.65c-.12-.2-.22-.4-.3-.61l6.67-6.72c.2.28.32.44.36.48l-6.73,6.85ZM431.29,55.29c-.08-.24-.16-.46-.24-.67l6.91-7.03c.12.2.22.39.3.55l-6.97,7.15ZM431.29,64.2c.12-.4.22-.81.3-1.21l9.09-9.21c.04.2.08.44.12.73l-9.51,9.69ZM431.72,57.11c-.04-.24-.1-.5-.18-.79l7.27-7.33c.12.24.22.42.3.54l-7.39,7.57ZM431.9,59.11c0-.24-.02-.52-.06-.85l7.7-7.82c.12.28.2.51.24.67l-7.88,8ZM431.84,61.41c.04-.32.06-.65.06-.97l8.24-8.36c.08.2.16.42.24.67l-8.54,8.67ZM435.05,75.35c-.61.61-1.21,1.15-1.82,1.64l3.82-3.94c-.61.81-1.27,1.58-2,2.3Z"/>
    <path class="cls-1" d="M443.96,75.83l5.76-5.82c.2.16.36.28.49.36l-5.76,5.94c-.16-.16-.32-.32-.49-.48ZM445.11,76.92l5.82-5.94c.24.16.42.28.54.36l-5.88,6c-.2-.16-.36-.3-.48-.42ZM452.32,71.83c.12.08.3.18.54.3l-6.06,6.18c-.12-.12-.28-.24-.48-.36l6-6.12ZM453.83,72.5c.24.08.46.14.67.18l-6.3,6.48c-.24-.16-.42-.28-.55-.36l6.18-6.3ZM456.38,72.86h.12l-6.85,7.03c-.16-.04-.36-.12-.61-.24l6.61-6.79h.73ZM460.44,70.2l10-10.18v.91l-19.21,19.63c-.24-.08-.47-.16-.67-.24l7.7-7.88c.52-.24,1.01-.61,1.45-1.09.28-.32.52-.71.73-1.15ZM470.44,62.26v.91l-17.51,17.87c-.24-.08-.48-.14-.73-.18l18.24-18.6ZM470.44,64.5v.91l-15.63,15.94c-.24-.04-.51-.08-.79-.12l16.42-16.72ZM470.44,66.74v.91l-13.57,13.81h-.06c-.24,0-.51-.02-.79-.06l14.42-14.66ZM459.23,81.28c-.36.04-.69.08-.97.12l12.06-12.3c-.04.36-.08.71-.12,1.03l-10.97,11.15ZM462.2,80.5c-.44.16-.87.3-1.27.42l8.91-9.09c-.12.44-.24.87-.36,1.27l-7.27,7.39ZM460.98,38.69h.61l-.55.54-.06-.54ZM470.44,57.77v.91l-9.45,9.63c.04-.32.08-.65.12-.97l9.33-9.57ZM465.1,38.69h.85l-4.85,4.97-.06-.85,4.06-4.12ZM462.92,38.69h.85l-2.73,2.79v-.91l1.88-1.88ZM469.47,38.69h.85l-9.21,9.39v-.85l8.36-8.54ZM467.29,38.69h.85l-7.03,7.15v-.85l6.18-6.3ZM470.44,39.9v.91l-9.33,9.51v-.91l9.33-9.51ZM470.44,42.14v.91l-9.33,9.51v-.91l9.33-9.51ZM470.44,44.38v.91l-9.33,9.51v-.91l9.33-9.51ZM470.44,46.63v.85l-9.33,9.57v-.91l9.33-9.51ZM470.44,48.87v.85l-9.33,9.51v-.85l9.33-9.51ZM470.44,51.11v.85l-9.33,9.51v-.85l9.33-9.51ZM470.44,53.35v.85l-9.33,9.51v-.85l9.33-9.51ZM470.44,55.53v.91l-9.33,9.51v-.85l9.33-9.57ZM466.62,77.71c-.52.53-1.11.99-1.76,1.39l3.33-3.33c-.48.73-1.01,1.37-1.58,1.94Z"/>
    <path class="cls-1" d="M490.67,63.59h.85l-17.15,17.51h-.85l17.15-17.51ZM491.83,60.2l-.67,1.52-17.33,17.69.67-1.52,17.33-17.69ZM493.52,56.2l-.67,1.58-17.39,17.69.67-1.52,17.39-17.75ZM492.85,63.59h.85l-17.09,17.51h-.91l17.15-17.51ZM495.22,52.26l-.67,1.58-17.39,17.69.67-1.52,17.39-17.75ZM478.8,81.1h-.91l8.97-9.15-.67,1.58-7.39,7.57ZM501.94,43.17l.3.61-23.39,23.81.61-1.52,22.48-22.9ZM480.98,81.1h-.91l5.15-5.21-.67,1.58-3.58,3.64ZM501.28,41.6l.3.61-21.09,21.51.67-1.58,20.12-20.54ZM500.61,40.02l.3.61-18.72,19.15.61-1.58,17.81-18.18ZM482.98,81.1h-.67l1.21-1.27-.54,1.27ZM500.07,38.69l.18.42-16.42,16.72.67-1.58,15.27-15.57h.3ZM497.58,38.69h.85l-12.91,13.21.61-1.58,11.45-11.63ZM495.04,63.59h.85l-8.12,8.3h-.91l8.18-8.3ZM495.4,38.69h.85l-9.09,9.27.67-1.57,7.57-7.7ZM493.22,38.69h.85l-5.21,5.33.61-1.57,3.76-3.76ZM497.22,63.59h.85l-8.12,8.3h-.85l8.12-8.3ZM491.1,38.69h.79l-1.39,1.39.61-1.39ZM499.4,63.59h.91l-8.18,8.3h-.85l8.12-8.3ZM507.88,57.17l.3.61-13.88,14.12h-.85l14.42-14.72ZM508.55,58.74l.3.61-12.36,12.54h-.85l12.91-13.15ZM496.01,52.32l-.24-.61,6.85-7.03.24.67-6.85,6.97ZM496.67,53.9l-.24-.67,6.85-6.97.24.61-6.85,7.03ZM497.34,55.41l-.24-.61,6.85-6.97.24.61-6.85,6.97ZM498.01,56.99l-.24-.61,6.85-6.97.24.61-6.85,6.97ZM509.22,60.32l.3.61-10.79,10.97h-.91l11.39-11.57ZM498.67,58.56l-.24-.61,6.85-7.03.24.67-6.85,6.97ZM499.34,60.14l-.3-.61,6.91-7.03.24.61-6.85,7.03ZM500,61.71l-.3-.67,6.91-6.97.24.61-6.85,7.03ZM509.88,61.89l.24.61-9.21,9.39h-.91l9.88-10ZM500.61,63.29l-.24-.67,6.91-6.97.24.61-6.91,7.03ZM510.55,63.41l.24.61-7.7,7.88h-.85l8.3-8.48ZM511.21,64.98l.24.61-6.85,7.03-.3-.61,6.91-7.03ZM511.88,66.56l.24.61-6.85,7.03-.3-.61,6.91-7.03ZM512.55,68.08l.24.67-6.91,7.03-.24-.67,6.91-7.03ZM513.21,69.65l.24.67-6.91,6.97-.24-.61,6.91-7.03ZM513.88,71.23l.24.61-6.91,7.03-.24-.61,6.91-7.03ZM514.49,72.8l.3.61-6.91,7.03-.24-.61,6.85-7.03ZM515.15,74.38l.3.61-6,6.12h-.91l6.61-6.73ZM515.82,75.89l.3.61-4.48,4.6h-.85l5.03-5.21ZM516.49,77.47l.3.61-2.97,3.03h-.85l3.51-3.64ZM517.15,79.04l.24.61-1.39,1.45h-.85l2-2.06ZM517.82,80.56l.18.54h-.67l.48-.54Z"/>
  </g>
</svg>