<?xml version="1.0" encoding="UTF-8"?>
<svg id="Layer_8" data-name="Layer 8" xmlns="http://www.w3.org/2000/svg" viewBox="0 0 518 120">
  <defs>
    <style>
      .cls-1 {
        fill: #d4d4d4;
        stroke-width: 0px;
      }

      .cls-2 {
        isolation: isolate;
      }
    </style>
  </defs>
  <g class="cls-2">
    <path class="cls-1" d="M39.64,109.92h12.76v10.91H1.36V.85h12.76v54.53h12.76v10.91h-12.76v43.63h25.52ZM52.4,55.38h-25.52v-10.91h25.52v10.91ZM65.16,66.29h-12.76v-10.91h12.76v10.91ZM52.4,109.92v-10.91h12.76v10.91h-12.76ZM65.16,99.01v-32.72h12.76v32.72h-12.76Z"/>
  </g>
  <g>
    <g>
      <path class="cls-1" d="M131.77,56.96h.45l-.45.45v-.45ZM142.98,57.05h.68l-11.89,12.11v-.68l11.21-11.44ZM141.35,57.05h.63l-10.21,10.44v-.68l9.58-9.76ZM139.72,57.05h.63l-8.59,8.77v-.68l7.96-8.09ZM138.1,57.05h.63l-6.96,7.1v-.63l6.33-6.46ZM136.47,57.05h.63l-5.33,5.42v-.63l4.7-4.79ZM134.84,57.05h.63l-3.71,3.75v-.63l3.07-3.12ZM133.17,57.05h.68l-2.08,2.12v-.68l1.4-1.45ZM138.69,63.11v.68l-6.92,7.05v-.68l6.92-7.05ZM138.69,64.78v.63l-6.92,7.1v-.68l6.92-7.05ZM138.69,66.46v.63l-6.92,7.05v-.63l6.92-7.05ZM138.69,68.13v.63l-6.92,7.05v-.63l6.92-7.05ZM138.69,75.4v.05l-6.92,7.05v-.68l11.8-12.02c.24-.03.48-.06.72-.09l-5.6,5.69ZM138.69,69.85h.59l-7.5,7.64v-.63l6.92-7.1v.09ZM141.98,69.85h.54l-10.76,10.98v-.68l10.12-10.3h.09ZM140.22,69.85h.68l-9.13,9.31v-.68l8.45-8.63ZM138.69,76.44v.63l-6.92,7.1v-.68l6.92-7.05ZM138.69,78.12v.63l-6.92,7.05v-.63l6.92-7.05ZM138.69,79.79v.63l-6.92,7.05v-.63l6.92-7.05ZM138.69,81.46v.63l-6.46,6.6h-.45v-.18l6.92-7.05ZM139.09,82.73h.63l-5.88,5.97h-.63l5.88-5.97ZM140.72,82.73h.63l-5.83,5.97h-.68l5.88-5.97ZM142.35,82.73h.63l-5.83,5.97h-.63l5.83-5.97ZM143.97,82.68h.68l-5.88,6.01h-.63l5.83-6.01ZM139.41,63.02h-.63l5.83-5.97c.15,0,.36.02.63.05l-5.83,5.92ZM145.51,69.48c.27-.06.51-.15.72-.27.15-.06.27-.12.36-.18l-6.28,6.37h-.63l5.83-5.92ZM145.74,82.55c.3-.03.57-.07.81-.14l-6.15,6.28h-.63l5.97-6.15ZM141.04,63.02h-.63l5.74-5.83c.18,0,.38.02.59.05l-5.69,5.78ZM141.98,75.4h-.68l12.88-13.11c.06.15.12.32.18.5l-12.38,12.61ZM154.87,74.95c.09.12.18.24.27.36l-13.11,13.38h-.63l6.69-6.82c.36-.24.65-.53.86-.86l5.92-6.06ZM142.66,63.02h-.63l5.56-5.65c.21.06.38.11.5.14l-5.42,5.51ZM143.61,75.45c-.21-.03-.44-.05-.68-.05l11.66-11.84c.03.15.06.33.09.54l-11.07,11.34ZM155.54,75.9c.09.18.17.33.23.45l-12.11,12.34h-.63l12.52-12.79ZM144.2,63.16c-.15-.03-.35-.06-.59-.09l5.29-5.38c.18.06.3.11.36.14.03,0,.05,0,.07.02.01.02.04.02.07.02l-5.2,5.29ZM145.15,75.54c-.15-.03-.36-.05-.63-.05l10.26-10.49v.68l-9.63,9.85ZM156.04,77.08c.06.12.12.27.18.45l-10.89,11.16h-.68l11.39-11.62ZM145.6,63.38c-.15-.03-.33-.06-.54-.09l5.06-5.15c.15.06.29.12.41.18l-4.93,5.06ZM146.55,75.72c-.18-.03-.36-.06-.54-.09l8.72-8.86c-.06.27-.12.54-.18.81l-8,8.13ZM146.37,63.7h-.05l4.88-5.02c.15.09.29.18.41.27l-4.93,4.97c-.09-.09-.2-.17-.32-.23ZM156.49,78.97l-9.49,9.63c-.24.03-.47.05-.68.05l10.08-10.26c.03.15.06.35.09.59ZM147.41,64.87c-.06-.15-.14-.29-.23-.41l4.97-5.11c.12.12.24.23.36.32l-5.11,5.2ZM147.18,68.44c.18-.3.32-.66.41-1.09l6.06-6.15c.06.09.14.23.23.41l-6.69,6.82ZM147.81,76.13c-.15-.06-.3-.12-.45-.18l3.43-3.52c.18.03.35.08.5.14l-3.48,3.57ZM147.63,66.28c0-.18-.02-.38-.05-.59l5.38-5.47c.12.15.21.27.27.36l-5.6,5.69ZM148.85,88.42c-.24.03-.5.06-.77.09l8.45-8.59c0,.21-.02.44-.04.68l-7.64,7.82ZM148.76,76.85c-.12-.12-.24-.24-.36-.36l3.62-3.66c.15.09.3.17.45.23l-3.71,3.8ZM149.26,77.98c-.03-.18-.08-.35-.14-.5l3.98-4.07c.09.06.21.15.36.27l-4.2,4.29ZM149.4,79.02v-.13l4.66-4.79c.12.12.23.23.32.32l-5.02,5.15c.03-.18.04-.36.04-.54ZM151.02,87.88c-.3.09-.62.18-.95.27l6.24-6.37c-.06.3-.14.6-.23.9l-5.06,5.2ZM152.42,70.93c-.27.24-.51.44-.72.59l2.21-2.26c-.39.66-.89,1.22-1.49,1.67ZM154.32,85.75c-.42.45-.9.84-1.45,1.17l2.21-2.21c-.24.33-.5.68-.77,1.04Z"/>
      <path class="cls-1" d="M157.08,57.1h.63l-.5.5-.23-.41.09-.09ZM158.71,57.1h.63l-1.54,1.58-.23-.45,1.13-1.13ZM160.33,57.1h.63l-2.58,2.62-.23-.41,2.17-2.22ZM161.96,57.1h.68l-3.62,3.71-.27-.45,3.21-3.25ZM163.59,57.1h.68l-4.66,4.75-.23-.41,4.2-4.34ZM164.72,57.6l.27.45-4.79,4.84-.23-.41,4.75-4.88ZM165.35,58.68l.23.41-4.79,4.88-.23-.41,4.79-4.88ZM165.94,59.72l.23.41-4.79,4.88-.23-.41,4.79-4.88ZM166.53,60.76l.23.45-4.79,4.88-.23-.45,4.79-4.88ZM167.11,61.85l.27.41-4.79,4.88-.27-.41,4.79-4.88ZM167.75,62.89l.23.41-4.79,4.93-.23-.45,4.79-4.88ZM168.33,63.93l.23.45-4.79,4.88-.23-.41,4.79-4.93ZM168.92,65.01l.27.41-4.84,4.93-.23-.45,4.79-4.88ZM169.55,66.05l.23.41-4.84,4.93-.23-.41,4.84-4.93ZM170.14,67.09l.23.45-4.84,4.88-.23-.41,4.84-4.93ZM170.73,68.17l.23.41-4.79,4.93-.27-.41,4.84-4.93ZM183.2,57.1h.68l-17.13,17.45-.27-.41,16.72-17.04ZM185.33,57.1l-.18.36-17.81,18.17-.23-.41,17.72-18.12h.5ZM183.79,59.81l-.86,1.54-15.28,15.59v-.68l16.14-16.45ZM181.62,63.74l-.86,1.54-13.11,13.33v-.68l13.97-14.19ZM179.45,67.63l-.86,1.54-10.94,11.12v-.68l11.8-11.98ZM177.24,71.52l-.86,1.54-8.72,8.86v-.63l9.58-9.76ZM174.62,76.22v.32l-6.96,7.05v-.63l7.41-7.55-.45.81ZM174.62,77.53v.68l-6.96,7.05v-.63l6.96-7.09ZM174.62,79.2v.68l-6.96,7.05v-.68l6.96-7.05ZM174.62,80.87v.68l-6.96,7.05v-.68l6.96-7.05ZM174.62,83.22l-5.42,5.51h-.63l6.06-6.19v.68ZM170.82,88.74h-.63l4.43-4.52v.68l-3.8,3.84ZM181.58,57.1h.63l-10.44,10.67.9-1.58,8.9-9.08ZM172.45,88.74h-.63l2.8-2.85v.63l-2.17,2.21ZM174.07,88.74h-.63l1.18-1.17v.63l-.54.54ZM179.95,57.1h.63l-6.55,6.69.9-1.58,5.02-5.11ZM178.32,57.1h.63l-2.67,2.71.9-1.58,1.13-1.13Z"/>
      <path class="cls-1" d="M201.64,57.05h.18l-11.93,12.16v-.63l11.3-11.53h.45ZM199.52,57.05h.68l-10.3,10.53v-.68l9.63-9.85ZM197.89,57.05h.68l-8.68,8.86v-.68l8-8.18ZM196.26,57.05h.63l-7.01,7.19v-.68l6.37-6.51ZM194.64,57.05h.63l-5.38,5.51v-.68l4.75-4.84ZM193.01,57.05h.63l-3.75,3.84v-.63l3.12-3.21ZM191.38,57.05h.63l-2.12,2.17v-.63l1.49-1.54ZM189.89,57.05h.5l-.5.5v-.5ZM196.81,63.2v.63l-6.92,7.05v-.63l6.92-7.05ZM196.81,64.83v.68l-6.92,7.05v-.63l6.92-7.1ZM196.81,66.5v.68l-6.92,7.05v-.68l6.92-7.05ZM196.81,68.17v.68l-6.92,7.05v-.68l6.92-7.05ZM196.81,69.85v.68l-6.92,7.05v-.68l6.92-7.05ZM196.81,71.52v.68l-6.92,7.05v-.68l6.92-7.05ZM202.41,72.51c.24-.03.45-.05.63-.05l-6.01,6.15h-.23v.23l-6.92,7.05v-.63l12.52-12.74ZM200.74,72.51h.63l-11.48,11.71v-.63l10.85-11.07ZM199.11,72.51h.63l-9.85,10.03v-.63l9.22-9.4ZM197.49,72.51h.63l-8.23,8.41v-.68l7.59-7.73ZM189.89,87.56v-.68l6.92-7.05v.68l-6.92,7.05ZM189.89,88.69v-.13l6.92-7.05v.68l-6.37,6.51h-.54ZM192.06,88.69h-.68l5.42-5.51v.68l-4.75,4.84ZM193.69,88.69h-.63l3.75-3.84v.63l-3.12,3.21ZM195.32,88.69h-.63l2.12-2.17v.63l-1.49,1.54ZM196.81,88.69h-.5l.5-.5v.5ZM197.53,63.16h-.68l5.92-6.06h.63l-5.88,6.06ZM204.17,72.33c.27-.03.54-.09.81-.18l-6.33,6.46h-.63l6.15-6.28ZM199.16,63.16h-.68l5.88-5.97c.24,0,.44.02.59.05l-5.78,5.92ZM214.48,63.47c.06.15.12.32.18.5l-14.37,14.64h-.63l14.82-15.14ZM200.78,63.16h-.68l5.74-5.83c.18.03.36.06.54.09l-5.6,5.74ZM214.84,64.83c.03.21.06.39.09.54l-13.2,13.42-.14-.18h-.32l13.56-13.78ZM202.01,63.16h-.23l5.47-5.6s.2.07.5.13l-5.33,5.47h-.41ZM215.02,66.28v.63l-12.61,12.88-.27-.41,12.88-13.11ZM215.02,67.9v.72l-11.93,12.16-.27-.41,12.2-12.47ZM203.95,63.25c-.18-.03-.38-.06-.59-.09l5.2-5.29c.15.06.32.12.5.18l-5.11,5.2ZM214.93,69.71c-.03.24-.08.51-.14.81l-11.03,11.25-.27-.41,11.43-11.66ZM209.15,77.39l.23.32-4.97,5.02-.23-.36,10.26-10.48c-.12.36-.26.72-.41,1.08l-3.98,4.02c-.27.15-.57.29-.9.41ZM205.35,63.47c-.18-.03-.36-.06-.54-.09l4.97-5.06c.18.06.33.12.45.18l-4.88,4.97ZM209.78,78.3l.27.36-4.97,5.06-.27-.41,4.97-5.02ZM210.46,79.25l.27.41-4.97,5.06-.27-.41,4.97-5.06ZM206.48,63.97c-.12-.09-.26-.17-.41-.23l4.79-4.93c.12.06.26.15.41.27l-4.79,4.88ZM211.13,80.24l.27.41-4.97,5.06-.27-.41,4.97-5.06ZM211.81,81.24l.27.36-4.97,5.06-.27-.36,4.97-5.06ZM207.34,64.78c-.09-.12-.2-.24-.32-.36l4.84-4.93.09.05c.09.09.18.17.27.23l-4.88,5.02ZM212.49,82.18l.27.41-4.97,5.06-.27-.41,4.97-5.06ZM207.83,65.96c-.06-.18-.12-.35-.18-.5l5.06-5.2c.12.12.23.24.32.36l-5.2,5.33ZM207.83,69.3c.06-.27.09-.54.09-.81l6.1-6.24c.09.15.17.32.23.5l-6.42,6.55ZM207.97,67.45v-.63l5.47-5.6c.09.12.18.26.27.41l-5.74,5.83ZM213.17,83.18l.27.36-5.02,5.11-.23-.41,4.97-5.06ZM214.12,84.53l-4.11,4.16h-.63l4.47-4.56.27.41ZM211.68,88.69h-.68l3.53-3.57.27.41-3.12,3.16ZM213.3,88.69h-.68l2.58-2.62.27.41-2.17,2.21ZM214.93,88.69h-.63l1.58-1.63.27.41-1.22,1.22ZM216.56,88.69h-.63l.63-.63.27.36-.27.27Z"/>
      <path class="cls-1" d="M234.64,56.47h.27l-16.54,16.86v-.63l15.91-16.23h.36ZM235.86,56.51c.24,0,.45.02.63.05l-18.03,18.35c0-.21-.02-.42-.05-.63l17.45-17.76ZM232.51,56.56c.21,0,.45-.01.72-.05l-14.82,15.14c0-.21.01-.45.05-.72l14.06-14.37ZM230.57,56.92c.27-.06.54-.12.81-.18l-12.79,13.02c.06-.27.12-.54.18-.81l11.8-12.02ZM226.86,67.36c-.24.42-.45.86-.63,1.31l-7.55,7.68c-.03-.21-.06-.41-.09-.59l8.27-8.41ZM225.78,70.16c-.09.24-.15.51-.18.81l-6.55,6.69c-.06-.18-.12-.35-.18-.5l6.92-7.01ZM228.17,57.69c.33-.15.68-.29,1.04-.41l-10.08,10.3c.09-.36.21-.71.36-1.04l8.68-8.86ZM225.51,72.11c-.03.24-.04.47-.04.68l-6.01,6.15c-.06-.12-.12-.29-.18-.5l6.24-6.33ZM225.51,73.73c0,.24.02.44.05.59l-5.6,5.74c-.09-.18-.17-.33-.23-.45l5.78-5.88ZM225.69,75.22c.03.15.07.32.14.5l-5.33,5.42c-.06-.12-.14-.26-.23-.41l5.42-5.51ZM223.97,60.31c.72-.63,1.48-1.18,2.26-1.63l-5.83,5.92c.45-.78.98-1.54,1.58-2.26l1.99-2.03ZM226.05,76.49c.06.15.12.32.18.5l-5.06,5.15c-.12-.12-.21-.24-.27-.36l5.15-5.29ZM226.55,77.66c.06.15.14.3.23.45l-4.93,4.97c-.12-.15-.21-.27-.27-.36l4.97-5.06ZM227.13,78.7c.09.15.18.29.27.41l-4.79,4.88c-.12-.15-.21-.27-.27-.36l4.79-4.93ZM228.13,80.01l-4.66,4.79c-.15-.15-.27-.26-.36-.32l4.75-4.79c.12.12.21.23.27.32ZM228.63,80.56c.12.09.24.18.36.27l-4.66,4.75c-.09-.06-.21-.15-.36-.27l4.66-4.74ZM229.53,81.28c.12.09.24.18.36.27l-4.61,4.74c-.15-.12-.29-.21-.41-.27l4.66-4.75ZM230.52,81.96c.15.06.3.14.45.23l-4.7,4.74c-.12-.06-.26-.13-.41-.23l4.66-4.75ZM231.65,82.46c.15.06.32.12.5.18l-4.79,4.88c-.21-.09-.36-.17-.45-.23l4.75-4.84ZM232.96,82.82c.21.03.39.06.54.09l-5.02,5.11c-.12-.03-.27-.09-.45-.18l4.93-5.02ZM234.68,82.95h.41l-5.38,5.47c-.18-.03-.35-.07-.5-.14l5.2-5.33h.27ZM231.65,63.11c-.42.15-.81.35-1.17.59l6.87-7.05c.18.03.36.06.54.09l-6.24,6.37ZM236.17,82.86c.27-.06.54-.12.81-.18l-5.97,6.1c-.12-.03-.3-.07-.54-.14l5.69-5.78ZM250.68,69.71c.03.18.06.38.09.59l-18.35,18.71c-.18-.03-.36-.06-.54-.09l6.69-6.87c.96-.48,1.84-1.16,2.62-2.03.6-.66,1.1-1.39,1.49-2.17l8-8.14ZM233.73,62.66c-.21.03-.45.06-.72.09l5.74-5.83c.18.03.35.07.5.13l-5.51,5.6ZM250.86,71.2c0,.18.01.39.05.63l-16.95,17.26c-.21,0-.42-.02-.63-.05l17.54-17.85ZM235.4,62.61h-.63l5.24-5.33c.09.03.26.09.5.18l-5.11,5.15ZM250.91,73.46l-15.32,15.64h-.68l16-16.32v.68ZM236.81,62.84c-.15-.03-.33-.06-.54-.09l4.93-5.02c.24.09.39.15.45.18l-4.84,4.93ZM237.39,88.92c-.21.03-.45.06-.72.09l14.19-14.46c-.03.3-.06.56-.09.77l-13.38,13.6ZM238.03,63.25c-.15-.06-.3-.12-.45-.18l4.75-4.84c.18.12.32.21.41.27l-4.7,4.75ZM239.47,88.47c-.3.09-.59.17-.86.23l11.93-12.2c-.06.33-.12.63-.18.9l-10.89,11.07ZM239.11,63.83c-.12-.09-.26-.17-.41-.23l4.66-4.75c.15.06.29.13.41.23l-4.66,4.75ZM240.11,64.51c-.15-.09-.27-.18-.36-.27l4.61-4.7c.09.06.21.15.36.27l-4.61,4.7ZM240.96,65.33c-.15-.15-.27-.27-.36-.36l4.66-4.7c.12.09.24.18.36.27l-4.66,4.79ZM242.14,87.43c-.39.18-.78.36-1.18.54l8.9-9.08c-.15.39-.32.78-.5,1.17l-7.23,7.37ZM241.69,66.18c-.12-.15-.21-.27-.27-.36l4.7-4.79s.03.06.09.09c.03.03.07.08.11.14s.08.09.11.09l-4.75,4.84ZM242.36,67.18c-.09-.15-.17-.29-.23-.41l4.79-4.88c.15.15.26.27.32.36l-4.88,4.93ZM242.95,68.26c-.09-.15-.17-.3-.23-.45l4.97-5.02c.15.21.24.33.27.36l-5.02,5.11ZM243.4,69.48c-.06-.18-.12-.35-.18-.5l5.15-5.24c.09.15.16.29.23.41l-5.2,5.33ZM243.4,76.13c.09-.3.16-.6.23-.9l6.78-6.87c.03.15.06.33.09.54l-7.1,7.23ZM243.72,70.84c-.03-.18-.08-.38-.14-.59l5.42-5.47c.09.18.17.32.23.41l-5.51,5.65ZM243.86,72.33c0-.18-.02-.39-.05-.63l5.74-5.83c.09.21.15.38.18.5l-5.88,5.97ZM243.81,74.05c.03-.24.05-.48.05-.72l6.15-6.24c.06.15.12.32.18.5l-6.37,6.46ZM246.21,84.44c-.45.45-.9.86-1.36,1.22l2.85-2.94c-.45.6-.95,1.18-1.49,1.72Z"/>
      <path class="cls-1" d="M261.93,56.83l.09.14-6.55,6.69v-.68l6.06-6.15h.41ZM259.9,56.83h.63l-5.06,5.15v-.68l4.43-4.47ZM258.23,56.83h.68l-3.44,3.48v-.63l2.76-2.85ZM256.6,56.83h.68l-1.81,1.81v-.63l1.13-1.17ZM255.47,56.83h.14l-.14.14v-.14ZM262.48,57.51l.27.41-7.28,7.41v-.68l7.01-7.14ZM263.15,58.46l.32.41-8,8.13v-.68l7.68-7.86ZM263.88,59.59l.27.36-8.68,8.86v-.63l8.41-8.59ZM264.6,60.54l.27.36-9.4,9.58v-.63l9.13-9.31ZM265.28,61.48l.32.36-10.12,10.3v-.63l9.81-10.03ZM266,62.43l.27.36-10.8,11.03v-.63l10.53-10.76ZM266.73,63.38l.27.36-11.53,11.75v-.68l11.25-11.44ZM255.47,77.17v-.68l6.92-7.05v.68l-6.92,7.05ZM255.47,78.84v-.68l6.92-7.05v.68l-6.92,7.05ZM255.47,80.51v-.68l6.92-7.05v.63l-6.92,7.1ZM255.47,82.14v-.63l6.92-7.05v.63l-6.92,7.05ZM255.47,83.81v-.63l6.92-7.05v.63l-6.92,7.05ZM255.47,85.48v-.63l6.92-7.1v.68l-6.92,7.05ZM255.47,87.16v-.68l6.92-7.05v.68l-6.92,7.05ZM255.47,88.65v-.5l6.92-7.05v.68l-6.73,6.87h-.18ZM257.28,88.65h-.63l5.74-5.88v.68l-5.11,5.2ZM258.95,88.65h-.68l4.11-4.2v.68l-3.44,3.52ZM260.58,88.65h-.68l2.49-2.53v.63l-1.81,1.9ZM262.21,88.65h-.63l.81-.86v.63l-.18.23ZM267.4,64.33l.27.36-4.75,4.84-.27-.36,4.75-4.84ZM268.13,65.28l.27.36-4.75,4.84-.27-.36,4.75-4.84ZM268.85,66.23l.27.36-4.79,4.84-.27-.36,4.79-4.84ZM269.53,67.13l.27.41-4.75,4.84-.27-.36,4.75-4.88ZM270.25,68.08l.27.41-4.75,4.84-.32-.36,4.79-4.88ZM270.93,69.03l.32.41-4.79,4.84-.27-.36,4.75-4.88ZM271.65,69.98l.27.41-4.75,4.84-.27-.36,4.75-4.88ZM272.38,70.93l.27.36-4.75,4.88-.32-.36,4.79-4.88ZM273.05,71.88l.32.36-4.79,4.88-.27-.36,4.75-4.88ZM273.78,72.83l.27.36-4.75,4.88-.27-.36,4.75-4.88ZM274.5,73.78l.27.36-4.79,4.88-.27-.36,4.79-4.88ZM275.18,74.73l.27.36-4.75,4.88-.27-.41,4.75-4.84ZM275.9,75.68l.27.36-4.75,4.88-.32-.41,4.79-4.84ZM276.62,76.62l.27.36-4.79,4.88-.27-.41,4.79-4.84ZM284.08,70.66v.63l-11.25,11.53-.27-.41,11.52-11.75ZM284.08,72.33v.63l-10.58,10.8-.27-.41,10.85-11.03ZM284.08,74v.63l-9.85,10.03-.27-.36,10.12-10.3ZM284.08,75.63v.68l-9.13,9.31-.32-.36,9.45-9.63ZM284.08,77.3v.68l-8.45,8.59-.27-.36,8.72-8.9ZM284.08,78.97v.68l-7.73,7.86-.27-.36,8-8.18ZM284.08,80.65v.68l-7.05,7.14-.27-.36,7.32-7.46ZM282.77,57.01h.63l-6.24,6.37v-.68l5.6-5.69ZM281.14,57.01h.63l-4.61,4.7v-.68l3.98-4.02ZM279.47,57.01h.68l-2.98,3.03v-.68l2.3-2.35ZM277.84,57.01h.68l-1.36,1.36v-.68l.68-.68ZM284.08,57.33v.63l-6.91,7.09v-.68l6.91-7.05ZM284.08,59v.63l-6.91,7.05v-.63l6.91-7.05ZM284.08,60.67v.63l-6.91,7.05v-.63l6.91-7.05ZM284.08,62.3v.68l-6.91,7.05v-.63l6.91-7.09ZM284.08,63.97v.68l-6.91,7.05v-.68l6.91-7.05ZM284.08,65.64v.68l-6.91,7.05v-.68l6.91-7.05ZM284.08,67.31v.68l-6.91,7.05v-.68l6.91-7.05ZM284.08,68.99v.63l-6.91,7.09v-.68l6.91-7.05ZM284.08,82.95l-5.56,5.69h-.63l6.19-6.33v.63ZM280.19,88.65h-.68l4.56-4.66v.63l-3.89,4.02ZM281.82,88.65h-.68l2.94-2.98v.63l-2.26,2.35ZM283.45,88.65h-.68l1.31-1.31v.63l-.63.68Z"/>
      <path class="cls-1" d="M318.43,57.1c.24,0,.47.02.68.05l-11.62,11.8v-.63l10.94-11.21ZM316.8,57.1h.68l-9.99,10.17v-.63l9.31-9.54ZM315.18,57.1h.63l-8.32,8.5v-.63l7.68-7.86ZM313.55,57.1h.63l-6.69,6.87v-.68l6.06-6.19ZM311.92,57.1h.63l-5.06,5.2v-.68l4.43-4.52ZM314.41,63.16v.41l-6.92,7.05v-.68l12.56-12.79c.15,0,.35.02.59.05l-5.88,5.97h-.36ZM310.29,57.19h.63l-3.44,3.48v-.68l2.8-2.8ZM308.62,57.19h.68l-1.81,1.81v-.63l1.13-1.17ZM307.49,57.19h.18l-.18.14v-.14ZM314.41,64.56v.68l-6.92,7.05v-.68l6.92-7.05ZM314.41,66.23v.68l-6.92,7.05v-.68l6.92-7.05ZM314.41,67.9v.63l-6.92,7.09v-.68l6.92-7.05ZM314.41,69.57v.63l-6.92,7.05v-.63l6.92-7.05ZM314.41,71.25v.63l-6.92,7.05v-.63l6.92-7.05ZM314.41,72.87v.68l-6.92,7.05v-.63l6.92-7.09ZM320.1,73.78c.27-.03.51-.06.72-.09l-6.1,6.24h-.32v.32l-6.92,7.05v-.68l12.61-12.84ZM318.43,73.82h.63l-11.57,11.8v-.68l10.94-11.12ZM316.8,73.82h.63l-9.94,10.12v-.68l9.31-9.45ZM315.13,73.82h.68l-8.32,8.45v-.68l7.64-7.77ZM307.49,88.74v-.45l6.92-7.05v.63l-6.73,6.87h-.18ZM309.34,88.74h-.68l5.74-5.83v.63l-5.06,5.2ZM310.97,88.74h-.68l4.11-4.16v.63l-3.44,3.52ZM312.6,88.74h-.63l2.44-2.53v.68l-1.81,1.85ZM314.23,88.74h-.63l.81-.86v.68l-.18.18ZM322.05,73.42c.51-.15.93-.36,1.27-.63l-6.96,7.14h-.63l6.33-6.51ZM316.44,63.16h-.68l5.78-5.88c.27.03.47.05.59.05l-5.69,5.83ZM331.76,65.19c.03.06.07.24.14.54l-13.92,14.19h-.63l14.42-14.73ZM318.07,63.16h-.68l5.6-5.69c.24.06.42.09.54.09l-5.47,5.6ZM331.99,66.64c.03.24.06.44.09.59l-12.43,12.66c-.24.03-.47.05-.68.05l13.02-13.29ZM319.65,63.2h-.63l5.33-5.47c.15.06.32.11.5.14l-5.2,5.33ZM321.1,63.43c-.18-.03-.36-.06-.54-.09l5.06-5.2c.15.06.32.12.5.18l-5.02,5.11ZM332.12,68.63v.23l-10.76,10.94c-.15,0-.38.02-.68.05l11.43-11.66v.45ZM322.36,63.79c-.18-.06-.35-.12-.5-.18l4.93-5.02c.15.09.29.17.41.23l-4.84,4.97ZM332.08,69.89c-.03.27-.06.51-.09.72l-8.72,8.9c-.27.06-.53.11-.77.13l9.58-9.76ZM323.4,64.33c-.12-.06-.24-.13-.36-.23l4.79-4.93c.15.09.29.18.41.27l-4.79,4.93s-.02-.05-.04-.05ZM324.26,65.19c-.09-.12-.2-.24-.32-.36l4.84-4.93s.05,0,.05.02c0,.02.01.02.05.02.09.09.18.18.27.27l-4.88,4.97ZM323.94,72.15c.3-.39.54-.84.72-1.36l6.73-6.91c.06.18.12.35.18.5l-7.64,7.77ZM331.81,71.79c-.06.3-.12.6-.18.9l-6.19,6.28c-.3.09-.6.18-.9.27l7.28-7.46ZM324.76,66.32c-.03-.18-.09-.33-.18-.45l5.06-5.15c.12.15.21.27.27.36l-5.15,5.24ZM324.98,67.77c0-.24-.02-.45-.05-.63l5.42-5.47c.06.09.14.21.23.36l-5.6,5.74ZM324.94,69.48c.03-.24.05-.48.05-.72l5.97-6.06c.06.12.12.27.18.45l-6.19,6.33ZM331.04,74.28c-.33.72-.74,1.35-1.22,1.9l-.77.77c-.09.09-.18.18-.27.27-.51.39-1.07.74-1.67,1.04l3.93-3.98Z"/>
      <path class="cls-1" d="M344.01,75.68h.63l-12.79,13.06h-.63l12.79-13.06ZM344.87,73.14l-.5,1.13-12.93,13.2.5-1.13,12.93-13.2ZM346.13,70.16l-.5,1.17-12.97,13.2.5-1.13,12.97-13.24ZM345.64,75.68h.63l-12.75,13.06h-.68l12.79-13.06ZM347.4,67.22l-.5,1.17-12.97,13.2.5-1.13,12.97-13.24ZM335.15,88.74h-.68l6.69-6.82-.5,1.17-5.51,5.65ZM352.42,60.44l.23.45-17.45,17.76.45-1.13,16.77-17.08ZM336.78,88.74h-.68l3.84-3.89-.5,1.17-2.67,2.71ZM351.92,59.27l.23.45-15.73,16.04.5-1.17,15.01-15.32ZM351.42,58.09l.23.45-13.97,14.28.45-1.18,13.29-13.56ZM338.27,88.74h-.5l.9-.95-.41.95ZM351.02,57.1l.14.32-12.25,12.47.5-1.18,11.39-11.62h.23ZM349.16,57.1h.63l-9.63,9.85.45-1.18,8.54-8.68ZM347.26,75.68h.63l-6.06,6.19h-.68l6.1-6.19ZM347.54,57.1h.63l-6.78,6.91.5-1.17,5.65-5.74ZM345.91,57.1h.63l-3.89,3.98.45-1.17,2.8-2.8ZM348.89,75.68h.63l-6.06,6.19h-.63l6.06-6.19ZM344.33,57.1h.59l-1.04,1.04.45-1.04ZM350.52,75.68h.68l-6.1,6.19h-.63l6.06-6.19ZM356.85,70.89l.23.45-10.35,10.53h-.63l10.76-10.98ZM357.34,72.06l.23.45-9.22,9.36h-.63l9.63-9.81ZM347.99,67.27l-.18-.45,5.11-5.24.18.5-5.11,5.2ZM348.48,68.44l-.18-.5,5.11-5.2.18.45-5.11,5.24ZM348.98,69.57l-.18-.45,5.11-5.2.18.45-5.11,5.2ZM349.48,70.75l-.18-.45,5.11-5.2.18.45-5.11,5.2ZM357.84,73.24l.23.45-8.05,8.18h-.68l8.5-8.63ZM349.98,71.92l-.18-.45,5.11-5.24.18.5-5.11,5.2ZM350.47,73.1l-.23-.45,5.15-5.24.18.45-5.11,5.24ZM350.97,74.28l-.23-.5,5.15-5.2.18.45-5.11,5.24ZM358.34,74.41l.18.45-6.87,7.01h-.68l7.37-7.46ZM351.42,75.45l-.18-.5,5.15-5.2.18.45-5.15,5.24ZM358.83,75.54l.18.45-5.74,5.88h-.63l6.19-6.33ZM359.33,76.71l.18.45-5.11,5.24-.23-.45,5.15-5.24ZM359.83,77.89l.18.45-5.11,5.24-.23-.45,5.15-5.24ZM360.33,79.02l.18.5-5.15,5.24-.18-.5,5.15-5.24ZM360.82,80.2l.18.5-5.15,5.2-.18-.45,5.15-5.24ZM361.32,81.37l.18.45-5.15,5.24-.18-.45,5.15-5.24ZM361.77,82.55l.23.45-5.15,5.24-.18-.45,5.11-5.24ZM362.27,83.72l.23.45-4.47,4.56h-.68l4.93-5.02ZM362.77,84.85l.23.45-3.34,3.44h-.63l3.75-3.89ZM363.26,86.03l.23.45-2.21,2.26h-.63l2.62-2.71ZM363.76,87.2l.18.45-1.04,1.09h-.63l1.49-1.54ZM364.26,88.33l.14.41h-.5l.36-.41Z"/>
      <path class="cls-1" d="M374.52,56.83l.09.14-6.55,6.69v-.68l6.06-6.15h.41ZM372.48,56.83h.63l-5.06,5.15v-.68l4.43-4.47ZM370.81,56.83h.68l-3.44,3.48v-.63l2.76-2.85ZM369.19,56.83h.68l-1.81,1.81v-.63l1.13-1.17ZM368.05,56.83h.14l-.14.14v-.14ZM375.06,57.51l.27.41-7.28,7.41v-.68l7.01-7.14ZM375.74,58.46l.32.41-8,8.13v-.68l7.68-7.86ZM376.46,59.59l.27.36-8.68,8.86v-.63l8.41-8.59ZM377.18,60.54l.27.36-9.4,9.58v-.63l9.13-9.31ZM377.86,61.48l.32.36-10.12,10.3v-.63l9.81-10.03ZM378.59,62.43l.27.36-10.8,11.03v-.63l10.53-10.76ZM379.31,63.38l.27.36-11.53,11.75v-.68l11.25-11.44ZM368.05,77.17v-.68l6.92-7.05v.68l-6.92,7.05ZM368.05,78.84v-.68l6.92-7.05v.68l-6.92,7.05ZM368.05,80.51v-.68l6.92-7.05v.63l-6.92,7.1ZM368.05,82.14v-.63l6.92-7.05v.63l-6.92,7.05ZM368.05,83.81v-.63l6.92-7.05v.63l-6.92,7.05ZM368.05,85.48v-.63l6.92-7.1v.68l-6.92,7.05ZM368.05,87.16v-.68l6.92-7.05v.68l-6.92,7.05ZM368.05,88.65v-.5l6.92-7.05v.68l-6.73,6.87h-.18ZM369.86,88.65h-.63l5.74-5.88v.68l-5.11,5.2ZM371.53,88.65h-.68l4.11-4.2v.68l-3.44,3.52ZM373.16,88.65h-.68l2.49-2.53v.63l-1.81,1.9ZM374.79,88.65h-.63l.81-.86v.63l-.18.23ZM379.99,64.33l.27.36-4.75,4.84-.27-.36,4.75-4.84ZM380.71,65.28l.27.36-4.75,4.84-.27-.36,4.75-4.84ZM381.43,66.23l.27.36-4.79,4.84-.27-.36,4.79-4.84ZM382.11,67.13l.27.41-4.75,4.84-.27-.36,4.75-4.88ZM382.83,68.08l.27.41-4.75,4.84-.32-.36,4.79-4.88ZM383.51,69.03l.32.41-4.79,4.84-.27-.36,4.75-4.88ZM384.24,69.98l.27.41-4.75,4.84-.27-.36,4.75-4.88ZM384.96,70.93l.27.36-4.75,4.88-.32-.36,4.79-4.88ZM385.64,71.88l.32.36-4.79,4.88-.27-.36,4.75-4.88ZM386.36,72.83l.27.36-4.75,4.88-.27-.36,4.75-4.88ZM387.08,73.78l.27.36-4.79,4.88-.27-.36,4.79-4.88ZM387.76,74.73l.27.36-4.75,4.88-.27-.41,4.75-4.84ZM388.48,75.68l.27.36-4.75,4.88-.32-.41,4.79-4.84ZM389.21,76.62l.27.36-4.79,4.88-.27-.41,4.79-4.84ZM396.66,70.66v.63l-11.25,11.53-.27-.41,11.52-11.75ZM396.66,72.33v.63l-10.58,10.8-.27-.41,10.85-11.03ZM396.66,74v.63l-9.85,10.03-.27-.36,10.12-10.3ZM396.66,75.63v.68l-9.13,9.31-.32-.36,9.45-9.63ZM396.66,77.3v.68l-8.45,8.59-.27-.36,8.72-8.9ZM396.66,78.97v.68l-7.73,7.86-.27-.36,8-8.18ZM396.66,80.65v.68l-7.05,7.14-.27-.36,7.32-7.46ZM395.35,57.01h.63l-6.24,6.37v-.68l5.6-5.69ZM393.73,57.01h.63l-4.61,4.7v-.68l3.98-4.02ZM392.05,57.01h.68l-2.98,3.03v-.68l2.3-2.35ZM390.43,57.01h.68l-1.36,1.36v-.68l.68-.68ZM396.66,57.33v.63l-6.91,7.09v-.68l6.91-7.05ZM396.66,59v.63l-6.91,7.05v-.63l6.91-7.05ZM396.66,60.67v.63l-6.91,7.05v-.63l6.91-7.05ZM396.66,62.3v.68l-6.91,7.05v-.63l6.91-7.09ZM396.66,63.97v.68l-6.91,7.05v-.68l6.91-7.05ZM396.66,65.64v.68l-6.91,7.05v-.68l6.91-7.05ZM396.66,67.31v.68l-6.91,7.05v-.68l6.91-7.05ZM396.66,68.99v.63l-6.91,7.09v-.68l6.91-7.05ZM396.66,82.95l-5.56,5.69h-.63l6.19-6.33v.63ZM392.78,88.65h-.68l4.56-4.66v.63l-3.89,4.02ZM394.4,88.65h-.68l2.94-2.98v.63l-2.26,2.35ZM396.03,88.65h-.68l1.31-1.31v.63l-.63.68Z"/>
      <path class="cls-1" d="M406.16,57.05h.63l-5.56,5.69v-.68l4.93-5.02ZM404.48,57.05h.68l-3.93,4.02v-.68l3.25-3.34ZM402.86,57.05h.68l-2.31,2.35v-.68l1.63-1.67ZM401.23,57.05h.68l-.68.68v-.68ZM407.78,57.05h.63l-5.97,6.15h-.68l6.01-6.15ZM409.41,57.05h.63l-5.97,6.15h-.68l6.01-6.15ZM411.04,57.05h.63l-5.97,6.15h-.63l5.97-6.15ZM412.66,57.05h.68l-6.01,6.15h-.63l5.97-6.15ZM414.29,57.05h.68l-6.01,6.15h-.63l5.97-6.15ZM415.96,57.05h.63l-6.6,6.73v-.59h-.05l6.01-6.15ZM416.96,63.2v.18l-6.96,7.05v-.63l12.47-12.75h.63l-5.97,6.15h-.18ZM420.84,57.05h.63l-11.48,11.71v-.63l10.85-11.07ZM419.22,57.05h.63l-9.85,10.03v-.63l9.22-9.4ZM417.59,57.05h.63l-8.22,8.41v-.68l7.59-7.73ZM416.96,64.38v.68l-6.96,7.05v-.63l6.96-7.1ZM416.96,66.05v.68l-6.96,7.05v-.68l6.96-7.05ZM416.96,67.72v.68l-6.96,7.05v-.68l6.96-7.05ZM416.96,69.39v.68l-6.96,7.05v-.68l6.96-7.05ZM416.96,71.07v.63l-6.96,7.1v-.68l6.96-7.05ZM416.96,72.74v.63l-6.96,7.05v-.63l6.96-7.05ZM416.96,74.41v.63l-6.96,7.05v-.63l6.96-7.05ZM416.96,76.04v.68l-6.96,7.05v-.63l6.96-7.1ZM416.96,77.71v.68l-6.96,7.05v-.68l6.96-7.05ZM416.96,79.38v.68l-6.96,7.05v-.68l6.96-7.05ZM416.96,81.05v.68l-6.87,6.96h-.09v-.59l6.96-7.05ZM411.71,88.69h-.63l5.88-5.97v.68l-5.24,5.29ZM413.34,88.69h-.63l4.25-4.29v.63l-3.62,3.66ZM415.01,88.69h-.68l2.62-2.62v.63l-1.94,1.99ZM416.64,88.69h-.68l.95-.99v.68l-.27.32ZM418.76,63.2h-.63l5.97-6.15h.68l-6.01,6.15ZM420.39,63.2h-.63l5.97-6.1v.68l-5.33,5.42ZM422.02,63.2h-.63l4.34-4.43v.68l-3.71,3.75ZM423.69,63.2h-.68l2.71-2.76v.63l-2.03,2.12ZM425.32,63.2h-.68l1.09-1.09v.63l-.41.45Z"/>
      <path class="cls-1" d="M444.71,56.47h.27l-16.54,16.86v-.63l15.91-16.23h.36ZM445.93,56.51c.24,0,.45.02.63.05l-18.03,18.35c0-.21-.01-.42-.05-.63l17.45-17.76ZM442.58,56.56c.21,0,.45-.01.72-.05l-14.83,15.14c0-.21.01-.45.05-.72l14.06-14.37ZM440.64,56.92c.27-.06.54-.12.81-.18l-12.79,13.02.18-.81,11.8-12.02ZM436.93,67.36c-.24.42-.45.86-.63,1.31l-7.55,7.68c-.03-.21-.06-.41-.09-.59l8.27-8.41ZM435.85,70.16c-.09.24-.15.51-.18.81l-6.55,6.69c-.06-.18-.12-.35-.18-.5l6.91-7.01ZM438.24,57.69c.33-.15.68-.29,1.04-.41l-10.08,10.3c.09-.36.21-.71.36-1.04l8.68-8.86ZM435.58,72.11c-.03.24-.05.47-.05.68l-6.01,6.15c-.06-.12-.12-.29-.18-.5l6.24-6.33ZM435.58,73.73c0,.24.01.44.05.59l-5.6,5.74c-.09-.18-.17-.33-.23-.45l5.79-5.88ZM435.76,75.22c.03.15.07.32.14.5l-5.33,5.42c-.06-.12-.14-.26-.23-.41l5.42-5.51ZM434.04,60.31c.72-.63,1.47-1.18,2.26-1.63l-5.83,5.92c.45-.78.98-1.54,1.58-2.26l1.99-2.03ZM436.12,76.49c.06.15.12.32.18.5l-5.06,5.15c-.12-.12-.21-.24-.27-.36l5.15-5.29ZM436.62,77.66c.06.15.13.3.23.45l-4.93,4.97c-.12-.15-.21-.27-.27-.36l4.97-5.06ZM437.2,78.7c.09.15.18.29.27.41l-4.79,4.88c-.12-.15-.21-.27-.27-.36l4.79-4.93ZM438.2,80.01l-4.66,4.79c-.15-.15-.27-.26-.36-.32l4.75-4.79c.12.12.21.23.27.32ZM438.7,80.56c.12.09.24.18.36.27l-4.66,4.75c-.09-.06-.21-.15-.36-.27l4.66-4.74ZM439.6,81.28c.12.09.24.18.36.27l-4.61,4.74c-.15-.12-.29-.21-.41-.27l4.66-4.75ZM440.59,81.96c.15.06.3.14.45.23l-4.7,4.74c-.12-.06-.26-.13-.41-.23l4.66-4.75ZM441.72,82.46c.15.06.32.12.5.18l-4.79,4.88c-.21-.09-.36-.17-.45-.23l4.74-4.84ZM443.04,82.82c.21.03.39.06.54.09l-5.02,5.11c-.12-.03-.27-.09-.45-.18l4.93-5.02ZM444.75,82.95h.41l-5.38,5.47c-.18-.03-.35-.07-.5-.14l5.2-5.33h.27ZM441.72,63.11c-.42.15-.81.35-1.17.59l6.87-7.05c.18.03.36.06.54.09l-6.24,6.37ZM446.24,82.86c.27-.06.54-.12.81-.18l-5.97,6.1c-.12-.03-.3-.07-.54-.14l5.69-5.78ZM460.75,69.71c.03.18.06.38.09.59l-18.35,18.71c-.18-.03-.36-.06-.54-.09l6.69-6.87c.96-.48,1.84-1.16,2.62-2.03.6-.66,1.1-1.39,1.49-2.17l8-8.14ZM443.8,62.66c-.21.03-.45.06-.72.09l5.74-5.83c.18.03.35.07.5.13l-5.51,5.6ZM460.93,71.2c0,.18.01.39.05.63l-16.95,17.26c-.21,0-.42-.02-.63-.05l17.54-17.85ZM445.47,62.61h-.63l5.24-5.33c.09.03.26.09.5.18l-5.11,5.15ZM460.98,73.46l-15.32,15.64h-.68l16-16.32v.68ZM446.88,62.84c-.15-.03-.33-.06-.54-.09l4.93-5.02c.24.09.39.15.45.18l-4.84,4.93ZM447.46,88.92c-.21.03-.45.06-.72.09l14.19-14.46c-.03.3-.06.56-.09.77l-13.38,13.6ZM448.1,63.25c-.15-.06-.3-.12-.45-.18l4.74-4.84c.18.12.32.21.41.27l-4.7,4.75ZM449.54,88.47c-.3.09-.59.17-.86.23l11.93-12.2c-.06.33-.12.63-.18.9l-10.89,11.07ZM449.18,63.83c-.12-.09-.26-.17-.41-.23l4.66-4.75c.15.06.29.13.41.23l-4.66,4.75ZM450.18,64.51c-.15-.09-.27-.18-.36-.27l4.61-4.7c.09.06.21.15.36.27l-4.61,4.7ZM451.03,65.33c-.15-.15-.27-.27-.36-.36l4.66-4.7c.12.09.24.18.36.27l-4.66,4.79ZM452.21,87.43c-.39.18-.78.36-1.18.54l8.9-9.08c-.15.39-.32.78-.5,1.17l-7.23,7.37ZM451.76,66.18c-.12-.15-.21-.27-.27-.36l4.7-4.79s.03.06.09.09c.03.03.07.08.11.14s.08.09.11.09l-4.75,4.84ZM452.44,67.18c-.09-.15-.17-.29-.23-.41l4.79-4.88c.15.15.26.27.32.36l-4.88,4.93ZM453.02,68.26c-.09-.15-.17-.3-.23-.45l4.97-5.02c.15.21.24.33.27.36l-5.02,5.11ZM453.47,69.48c-.06-.18-.12-.35-.18-.5l5.15-5.24c.09.15.17.29.23.41l-5.2,5.33ZM453.47,76.13c.09-.3.17-.6.23-.9l6.78-6.87c.03.15.06.33.09.54l-7.1,7.23ZM453.79,70.84c-.03-.18-.07-.38-.13-.59l5.42-5.47c.09.18.17.32.23.41l-5.51,5.65ZM453.93,72.33c0-.18-.02-.39-.05-.63l5.74-5.83c.09.21.15.38.18.5l-5.88,5.97ZM453.88,74.05c.03-.24.05-.48.05-.72l6.15-6.24c.06.15.12.32.18.5l-6.37,6.46ZM456.28,84.44c-.45.45-.9.86-1.36,1.22l2.85-2.94c-.45.6-.95,1.18-1.49,1.72Z"/>
      <path class="cls-1" d="M462.92,84.81l4.29-4.34c.15.12.27.21.36.27l-4.29,4.43-.36-.36ZM463.78,85.62l4.34-4.43c.18.12.32.21.41.27l-4.38,4.47c-.15-.12-.27-.23-.36-.32ZM469.16,81.82c.09.06.23.13.41.23l-4.52,4.61c-.09-.09-.21-.18-.36-.27l4.47-4.56ZM470.29,82.32c.18.06.35.11.5.14l-4.7,4.84c-.18-.12-.32-.21-.41-.27l4.61-4.7ZM472.19,82.59h.09l-5.11,5.24c-.12-.03-.27-.09-.45-.18l4.93-5.06h.54ZM475.21,80.6l7.46-7.59v.68l-14.33,14.64c-.18-.06-.35-.12-.5-.18l5.74-5.88c.39-.18.75-.45,1.09-.81.21-.24.39-.53.54-.86ZM482.67,74.68v.68l-13.06,13.33c-.18-.06-.36-.11-.54-.13l13.6-13.88ZM482.67,76.35v.68l-11.66,11.89c-.18-.03-.38-.06-.59-.09l12.25-12.47ZM482.67,78.03v.68l-10.12,10.3h-.05c-.18,0-.38-.01-.59-.05l10.76-10.94ZM474.31,88.87c-.27.03-.51.06-.72.09l8.99-9.17c-.03.27-.06.53-.09.77l-8.18,8.32ZM476.53,88.28c-.33.12-.65.23-.95.32l6.64-6.78c-.09.33-.18.65-.27.95l-5.42,5.51ZM475.62,57.1h.45l-.41.41-.05-.41ZM482.67,71.34v.68l-7.05,7.19c.03-.24.06-.48.09-.72l6.96-7.14ZM478.7,57.1h.63l-3.62,3.71-.05-.63,3.03-3.07ZM477.07,57.1h.63l-2.03,2.08v-.68l1.4-1.4ZM481.95,57.1h.63l-6.87,7.01v-.63l6.24-6.37ZM480.32,57.1h.63l-5.24,5.33v-.63l4.61-4.7ZM482.67,58v.68l-6.96,7.1v-.68l6.96-7.1ZM482.67,59.68v.68l-6.96,7.1v-.68l6.96-7.1ZM482.67,61.35v.68l-6.96,7.1v-.68l6.96-7.1ZM482.67,63.02v.63l-6.96,7.14v-.68l6.96-7.1ZM482.67,64.69v.63l-6.96,7.1v-.63l6.96-7.1ZM482.67,66.36v.63l-6.96,7.1v-.63l6.96-7.1ZM482.67,68.04v.63l-6.96,7.1v-.63l6.96-7.1ZM482.67,69.66v.68l-6.96,7.1v-.63l6.96-7.14ZM479.82,86.21c-.39.39-.83.74-1.31,1.04l2.49-2.49c-.36.54-.75,1.02-1.18,1.45Z"/>
      <path class="cls-1" d="M497.77,75.68h.63l-12.79,13.06h-.63l12.79-13.06ZM498.63,73.14l-.5,1.13-12.93,13.2.5-1.13,12.93-13.2ZM499.89,70.16l-.5,1.17-12.97,13.2.5-1.13,12.97-13.24ZM499.4,75.68h.63l-12.75,13.06h-.68l12.79-13.06ZM501.16,67.22l-.5,1.17-12.97,13.2.5-1.13,12.97-13.24ZM488.91,88.74h-.68l6.69-6.82-.5,1.17-5.51,5.65ZM506.17,60.44l.23.45-17.45,17.76.45-1.13,16.77-17.08ZM490.54,88.74h-.68l3.84-3.89-.5,1.17-2.67,2.71ZM505.68,59.27l.23.45-15.73,16.04.5-1.17,15.01-15.32ZM505.18,58.09l.23.45-13.96,14.28.45-1.18,13.29-13.56ZM492.03,88.74h-.5l.9-.95-.41.95ZM504.77,57.1l.14.32-12.25,12.47.5-1.18,11.39-11.62h.23ZM502.92,57.1h.63l-9.63,9.85.45-1.18,8.54-8.68ZM501.02,75.68h.63l-6.06,6.19h-.68l6.1-6.19ZM501.29,57.1h.63l-6.78,6.91.5-1.17,5.65-5.74ZM499.67,57.1h.63l-3.89,3.98.45-1.17,2.8-2.8ZM502.65,75.68h.63l-6.06,6.19h-.63l6.06-6.19ZM498.08,57.1h.59l-1.04,1.04.45-1.04ZM504.28,75.68h.68l-6.1,6.19h-.63l6.06-6.19ZM510.6,70.89l.23.45-10.35,10.53h-.63l10.76-10.98ZM511.1,72.06l.23.45-9.22,9.36h-.63l9.63-9.81ZM501.74,67.27l-.18-.45,5.11-5.24.18.5-5.11,5.2ZM502.24,68.44l-.18-.5,5.11-5.2.18.45-5.11,5.24ZM502.74,69.57l-.18-.45,5.11-5.2.18.45-5.11,5.2ZM503.24,70.75l-.18-.45,5.11-5.2.18.45-5.11,5.2ZM511.6,73.24l.23.45-8.05,8.18h-.68l8.5-8.63ZM503.73,71.92l-.18-.45,5.11-5.24.18.5-5.11,5.2ZM504.23,73.1l-.23-.45,5.15-5.24.18.45-5.11,5.24ZM504.73,74.28l-.23-.5,5.15-5.2.18.45-5.11,5.24ZM512.09,74.41l.18.45-6.87,7.01h-.68l7.37-7.46ZM505.18,75.45l-.18-.5,5.15-5.2.18.45-5.15,5.24ZM512.59,75.54l.18.45-5.74,5.88h-.63l6.19-6.33ZM513.09,76.71l.18.45-5.11,5.24-.23-.45,5.15-5.24ZM513.59,77.89l.18.45-5.11,5.24-.23-.45,5.15-5.24ZM514.08,79.02l.18.5-5.15,5.24-.18-.5,5.15-5.24ZM514.58,80.2l.18.5-5.15,5.2-.18-.45,5.15-5.24ZM515.08,81.37l.18.45-5.15,5.24-.18-.45,5.15-5.24ZM515.53,82.55l.23.45-5.15,5.24-.18-.45,5.11-5.24ZM516.03,83.72l.23.45-4.47,4.56h-.68l4.93-5.02ZM516.52,84.85l.23.45-3.34,3.44h-.63l3.75-3.89ZM517.02,86.03l.23.45-2.21,2.26h-.63l2.62-2.71ZM517.52,87.2l.18.45-1.04,1.09h-.63l1.49-1.54ZM518.02,88.33l.13.41h-.5l.36-.41Z"/>
    </g>
    <g class="cls-2">
      <path class="cls-1" d="M154.82,74.91c1.14,1.33,1.72,2.98,1.72,4.97,0,2.2-.74,4.16-2.21,5.88-1.72,1.96-4.72,2.94-8.99,2.94h-8.45l5.83-5.97h.72c1.99,0,3.48-.25,4.47-.75.99-.5,1.49-1.48,1.49-2.96,0-.99-.26-1.76-.77-2.3l3.66-3.75c.99.48,1.84,1.13,2.53,1.94Z"/>
      <path class="cls-1" d="M185.33,57.1l-5.92,10.58h-7.59l6.01-10.58h7.5Z"/>
      <path class="cls-1" d="M210,78.61l7.01,10.08h-8.54l-6.87-10.08h-3.12v-6.15h4.02c.54,0,1.01-.03,1.4-.09.03,0,.12-.01.27-.05.15-.03.26-.04.32-.04l.27-.09c.87-.18,1.52-.47,1.94-.86.57-.51.95-1.25,1.13-2.21l.63-.68h6.55c-.24,4.58-2.2,7.56-5.88,8.95l.86,1.22Z"/>
      <path class="cls-1" d="M246.25,61.17c3.1,3.1,4.66,6.98,4.66,11.62s-1.57,8.56-4.7,11.66c-3.1,3.1-6.96,4.67-11.57,4.7-.03,0-.08,0-.16-.02s-.13-.02-.16-.02v-6.15h.36c2.59,0,4.76-.98,6.51-2.94,1.78-1.99,2.67-4.38,2.67-7.19s-.89-5.24-2.67-7.23c-1.72-1.93-3.86-2.92-6.42-2.98h-.41v-6.15h.32c4.61.03,8.47,1.6,11.57,4.7Z"/>
      <path class="cls-1" d="M277.17,57.01h6.91v31.64h-6.91l-3.21-4.29v-11.25l3.21,4.25v-20.34Z"/>
      <path class="cls-1" d="M332.12,68.63c0,3.92-1.12,6.78-3.34,8.59-1.93,1.57-4.7,2.44-8.32,2.62v-6.1c1.57-.15,2.67-.6,3.3-1.36.84-.93,1.27-2.31,1.27-4.14s-.54-3.13-1.63-3.91c-.69-.51-1.67-.86-2.94-1.04v-6.1c3.74.24,6.54,1.16,8.41,2.76,2.17,1.87,3.25,4.76,3.25,8.68Z"/>
      <path class="cls-1" d="M351.42,58l12.97,30.73h-7.32l-2.89-6.82h-12.93l2.62-6.24h7.68l-3.8-9.04,3.66-8.63Z"/>
      <path class="cls-1" d="M389.75,57.01h6.91v31.64h-6.91l-3.21-4.29v-11.25l3.21,4.25v-20.34Z"/>
      <path class="cls-1" d="M425.72,57.05v6.15h-7.41v-6.15h7.41Z"/>
      <path class="cls-1" d="M456.32,61.17c3.1,3.1,4.66,6.98,4.66,11.62s-1.57,8.56-4.7,11.66c-3.1,3.1-6.96,4.67-11.57,4.7-.03,0-.08,0-.16-.02-.07-.01-.13-.02-.16-.02v-6.15h.36c2.59,0,4.76-.98,6.51-2.94,1.78-1.99,2.67-4.38,2.67-7.19s-.89-5.24-2.67-7.23c-1.72-1.93-3.86-2.92-6.42-2.98h-.41v-6.15h.32c4.61.03,8.47,1.6,11.57,4.7Z"/>
      <path class="cls-1" d="M475.71,74.41h6.96v3.3c0,3.8-.95,6.62-2.85,8.47-1.9,1.85-4.35,2.78-7.37,2.78-3.64,0-6.85-1.42-9.63-4.25l4.29-4.43c1.66,1.54,3.34,2.3,5.06,2.3.96,0,1.79-.38,2.49-1.15.69-.77,1.04-1.92,1.04-3.46v-3.57Z"/>
      <path class="cls-1" d="M505.18,58l12.97,30.73h-7.32l-2.89-6.82h-12.93l2.62-6.24h7.68l-3.8-9.04,3.66-8.63Z"/>
    </g>
  </g>
</svg>